{
	"patcher" : 	{
		"fileversion" : 1,
		"appversion" : 		{
			"major" : 6,
			"minor" : 1,
			"revision" : 3,
			"architecture" : "x86"
		}
,
		"rect" : [ 25.0, 69.0, 635.0, 400.0 ],
		"bglocked" : 0,
		"openinpresentation" : 0,
		"default_fontsize" : 14.0,
		"default_fontface" : 0,
		"default_fontname" : "Helvetica Neue Light",
		"gridonopen" : 0,
		"gridsize" : [ 15.0, 15.0 ],
		"gridsnaponopen" : 0,
		"statusbarvisible" : 2,
		"toolbarvisible" : 1,
		"boxanimatetime" : 200,
		"imprint" : 0,
		"enablehscroll" : 1,
		"enablevscroll" : 1,
		"devicewidth" : 0.0,
		"description" : "",
		"digest" : "",
		"tags" : "",
		"boxes" : [ 			{
				"box" : 				{
					"fontname" : "Helvetica Neue Light",
					"fontsize" : 14.0,
					"id" : "obj-25",
					"maxclass" : "flonum",
					"numinlets" : 1,
					"numoutlets" : 2,
					"outlettype" : [ "float", "bang" ],
					"parameter_enable" : 0,
					"patching_rect" : [ 332.0, 24.0, 50.0, 23.0 ]
				}

			}
, 			{
				"box" : 				{
					"fontname" : "Helvetica Neue Light",
					"fontsize" : 14.0,
					"id" : "obj-23",
					"maxclass" : "newobj",
					"numinlets" : 1,
					"numoutlets" : 0,
					"patching_rect" : [ 21.5, 370.0, 62.0, 23.0 ],
					"text" : "s control"
				}

			}
, 			{
				"box" : 				{
					"fontname" : "Helvetica Neue Light",
					"fontsize" : 14.0,
					"id" : "obj-22",
					"maxclass" : "newobj",
					"numinlets" : 0,
					"numoutlets" : 0,
					"patcher" : 					{
						"fileversion" : 1,
						"appversion" : 						{
							"major" : 6,
							"minor" : 1,
							"revision" : 3,
							"architecture" : "x86"
						}
,
						"rect" : [ 22.0, 529.0, 520.0, 178.0 ],
						"bglocked" : 0,
						"openinpresentation" : 0,
						"default_fontsize" : 14.0,
						"default_fontface" : 0,
						"default_fontname" : "Helvetica Neue Light",
						"gridonopen" : 0,
						"gridsize" : [ 15.0, 15.0 ],
						"gridsnaponopen" : 0,
						"statusbarvisible" : 2,
						"toolbarvisible" : 1,
						"boxanimatetime" : 200,
						"imprint" : 0,
						"enablehscroll" : 1,
						"enablevscroll" : 1,
						"devicewidth" : 0.0,
						"description" : "",
						"digest" : "",
						"tags" : "",
						"visible" : 1,
						"boxes" : [ 							{
								"box" : 								{
									"fontname" : "Helvetica Neue Light",
									"fontsize" : 14.0,
									"frgb" : 0.0,
									"id" : "obj-7",
									"maxclass" : "comment",
									"numinlets" : 1,
									"numoutlets" : 0,
									"patching_rect" : [ 204.0, 22.0, 281.0, 23.0 ],
									"text" : "control data from bpatcher is easily sent here"
								}

							}
, 							{
								"box" : 								{
									"fontname" : "Helvetica Neue Light",
									"fontsize" : 14.0,
									"id" : "obj-5",
									"maxclass" : "newobj",
									"numinlets" : 1,
									"numoutlets" : 4,
									"outlettype" : [ "", "", "", "" ],
									"patching_rect" : [ 266.0, 86.0, 65.0, 23.0 ],
									"restore" : 									{
										"sliderR/1" : [ 41.0 ]
									}
,
									"text" : "autopattr",
									"varname" : "u125015532"
								}

							}
, 							{
								"box" : 								{
									"fontname" : "Helvetica Neue Light",
									"fontsize" : 14.0,
									"id" : "obj-4",
									"maxclass" : "newobj",
									"numinlets" : 0,
									"numoutlets" : 1,
									"outlettype" : [ "" ],
									"patching_rect" : [ 108.0, 18.0, 60.0, 23.0 ],
									"text" : "r control"
								}

							}
, 							{
								"box" : 								{
									"fontname" : "Helvetica Neue Light",
									"fontsize" : 14.0,
									"id" : "obj-3",
									"maxclass" : "message",
									"numinlets" : 2,
									"numoutlets" : 1,
									"outlettype" : [ "" ],
									"patching_rect" : [ 108.0, 90.0, 129.0, 21.0 ],
									"text" : "sliderR/1 41."
								}

							}
, 							{
								"box" : 								{
									"fontname" : "Helvetica Neue Light",
									"fontsize" : 14.0,
									"id" : "obj-1",
									"maxclass" : "newobj",
									"numinlets" : 1,
									"numoutlets" : 1,
									"outlettype" : [ "" ],
									"patching_rect" : [ 108.0, 49.0, 285.0, 23.0 ],
									"saved_object_attributes" : 									{
										"client_rect" : [ 4, 44, 358, 172 ],
										"parameter_enable" : 0,
										"storage_rect" : [ 766, 44, 1220, 302 ]
									}
,
									"text" : "pattrstorage SomewhereElse @outputmode 2",
									"varname" : "SomewhereElse"
								}

							}
, 							{
								"box" : 								{
									"id" : "obj-19",
									"maxclass" : "live.dial",
									"numinlets" : 1,
									"numoutlets" : 2,
									"outlettype" : [ "", "float" ],
									"parameter_enable" : 1,
									"patching_rect" : [ 31.5, 25.0, 44.0, 47.0 ],
									"saved_attribute_attributes" : 									{
										"valueof" : 										{
											"parameter_linknames" : 1,
											"parameter_longname" : "sliderR/1",
											"parameter_shortname" : "sliderR/1",
											"parameter_type" : 0,
											"parameter_unitstyle" : 0
										}

									}
,
									"varname" : "sliderR/1"
								}

							}
 ],
						"lines" : [ 							{
								"patchline" : 								{
									"destination" : [ "obj-3", 1 ],
									"disabled" : 0,
									"hidden" : 0,
									"source" : [ "obj-1", 0 ]
								}

							}
, 							{
								"patchline" : 								{
									"destination" : [ "obj-1", 0 ],
									"disabled" : 0,
									"hidden" : 0,
									"source" : [ "obj-4", 0 ]
								}

							}
 ]
					}
,
					"patching_rect" : [ 99.0, 370.0, 157.0, 23.0 ],
					"saved_object_attributes" : 					{
						"default_fontface" : 0,
						"default_fontname" : "Helvetica Neue Light",
						"default_fontsize" : 14.0,
						"description" : "",
						"digest" : "",
						"fontface" : 0,
						"fontname" : "Helvetica Neue Light",
						"fontsize" : 14.0,
						"globalpatchername" : "",
						"tags" : ""
					}
,
					"text" : "patcher SomewhereElse",
					"varname" : "SomewhereElse"
				}

			}
, 			{
				"box" : 				{
					"fontname" : "Helvetica Neue Light",
					"fontsize" : 14.0,
					"frgb" : 0.0,
					"id" : "obj-21",
					"maxclass" : "comment",
					"numinlets" : 1,
					"numoutlets" : 0,
					"patching_rect" : [ 239.0, 301.5, 114.0, 23.0 ],
					"text" : "break it up again!"
				}

			}
, 			{
				"box" : 				{
					"fontname" : "Helvetica Neue Light",
					"fontsize" : 14.0,
					"id" : "obj-20",
					"maxclass" : "message",
					"numinlets" : 2,
					"numoutlets" : 1,
					"outlettype" : [ "" ],
					"patching_rect" : [ 76.0, 332.5, 69.0, 21.0 ],
					"text" : "1 55."
				}

			}
, 			{
				"box" : 				{
					"fontname" : "Helvetica Neue Light",
					"fontsize" : 14.0,
					"frgb" : 0.0,
					"id" : "obj-18",
					"maxclass" : "comment",
					"numinlets" : 1,
					"numoutlets" : 0,
					"patching_rect" : [ 209.0, 234.5, 331.0, 23.0 ],
					"text" : "'regexp' allows me to break up messages into pieces"
				}

			}
, 			{
				"box" : 				{
					"fontname" : "Helvetica Neue Light",
					"fontsize" : 14.0,
					"frgb" : 0.0,
					"id" : "obj-17",
					"linecount" : 2,
					"maxclass" : "comment",
					"numinlets" : 1,
					"numoutlets" : 0,
					"patching_rect" : [ 239.0, 181.0, 368.0, 40.0 ],
					"text" : "'@outputmode 2' makes it so anything I do in the bpatcher comes out of pattrstorage"
				}

			}
, 			{
				"box" : 				{
					"fontname" : "Helvetica Neue Light",
					"fontsize" : 14.0,
					"frgb" : 0.0,
					"id" : "obj-16",
					"linecount" : 4,
					"maxclass" : "comment",
					"numinlets" : 1,
					"numoutlets" : 0,
					"patching_rect" : [ 454.5, 68.0, 126.0, 73.0 ],
					"text" : "create a message with sprintf and remote control the bpatcher dials."
				}

			}
, 			{
				"box" : 				{
					"fontname" : "Helvetica Neue Light",
					"fontsize" : 14.0,
					"id" : "obj-14",
					"maxclass" : "number",
					"maximum" : 4,
					"minimum" : 1,
					"numinlets" : 1,
					"numoutlets" : 2,
					"outlettype" : [ "int", "bang" ],
					"parameter_enable" : 0,
					"patching_rect" : [ 254.0, 10.0, 50.0, 23.0 ]
				}

			}
, 			{
				"box" : 				{
					"fontname" : "Helvetica Neue Light",
					"fontsize" : 14.0,
					"id" : "obj-12",
					"maxclass" : "newobj",
					"numinlets" : 2,
					"numoutlets" : 1,
					"outlettype" : [ "" ],
					"patching_rect" : [ 254.0, 35.0, 60.0, 23.0 ],
					"text" : "pak 1 0."
				}

			}
, 			{
				"box" : 				{
					"fontname" : "Helvetica Neue Light",
					"fontsize" : 14.0,
					"id" : "obj-11",
					"maxclass" : "newobj",
					"numinlets" : 2,
					"numoutlets" : 1,
					"outlettype" : [ "" ],
					"patching_rect" : [ 254.0, 68.0, 194.0, 23.0 ],
					"text" : "sprintf CNTRLR::sliderR/%i %f"
				}

			}
, 			{
				"box" : 				{
					"fontname" : "Helvetica Neue Light",
					"fontsize" : 14.0,
					"id" : "obj-10",
					"maxclass" : "message",
					"numinlets" : 2,
					"numoutlets" : 1,
					"outlettype" : [ "" ],
					"patching_rect" : [ 271.0, 108.0, 177.0, 21.0 ],
					"text" : "CNTRLR::sliderR/1 55."
				}

			}
, 			{
				"box" : 				{
					"fontname" : "Helvetica Neue Light",
					"fontsize" : 14.0,
					"id" : "obj-9",
					"maxclass" : "newobj",
					"numinlets" : 1,
					"numoutlets" : 5,
					"outlettype" : [ "", "", "", "", "" ],
					"patching_rect" : [ 76.0, 301.5, 155.0, 23.0 ],
					"text" : "regexp sliderR/(.+)\\\\s(.+)"
				}

			}
, 			{
				"box" : 				{
					"fontname" : "Helvetica Neue Light",
					"fontsize" : 14.0,
					"id" : "obj-8",
					"maxclass" : "message",
					"numinlets" : 2,
					"numoutlets" : 1,
					"outlettype" : [ "" ],
					"patching_rect" : [ 209.0, 270.5, 185.0, 21.0 ],
					"text" : "sliderR/1 55."
				}

			}
, 			{
				"box" : 				{
					"fontname" : "Helvetica Neue Light",
					"fontsize" : 14.0,
					"frgb" : 0.0,
					"id" : "obj-7",
					"maxclass" : "comment",
					"numinlets" : 1,
					"numoutlets" : 0,
					"patching_rect" : [ 21.5, 14.0, 168.0, 23.0 ],
					"text" : "bpatcher named CNTRLR"
				}

			}
, 			{
				"box" : 				{
					"fontname" : "Helvetica Neue Light",
					"fontsize" : 14.0,
					"id" : "obj-5",
					"maxclass" : "message",
					"numinlets" : 2,
					"numoutlets" : 1,
					"outlettype" : [ "" ],
					"patching_rect" : [ 54.0, 186.5, 185.0, 21.0 ],
					"text" : "CNTRLR::sliderR/1 55."
				}

			}
, 			{
				"box" : 				{
					"fontname" : "Helvetica Neue Light",
					"fontsize" : 14.0,
					"id" : "obj-2",
					"maxclass" : "newobj",
					"numinlets" : 1,
					"numoutlets" : 1,
					"outlettype" : [ "" ],
					"patching_rect" : [ 38.0, 148.5, 185.0, 23.0 ],
					"saved_object_attributes" : 					{
						"client_rect" : [ 4, 44, 358, 172 ],
						"parameter_enable" : 0,
						"storage_rect" : [ 766, 44, 1220, 302 ]
					}
,
					"text" : "pattrstorage @outputmode 2",
					"varname" : "u427022202"
				}

			}
, 			{
				"box" : 				{
					"border" : 1,
					"embed" : 1,
					"id" : "obj-1",
					"maxclass" : "bpatcher",
					"numinlets" : 0,
					"numoutlets" : 0,
					"patcher" : 					{
						"fileversion" : 1,
						"appversion" : 						{
							"major" : 6,
							"minor" : 1,
							"revision" : 3,
							"architecture" : "x86"
						}
,
						"rect" : [ 47.0, 105.0, 218.0, 59.0 ],
						"bgcolor" : [ 1.0, 1.0, 1.0, 0.0 ],
						"bglocked" : 0,
						"openinpresentation" : 0,
						"default_fontsize" : 14.0,
						"default_fontface" : 0,
						"default_fontname" : "Helvetica Neue Light",
						"gridonopen" : 0,
						"gridsize" : [ 15.0, 15.0 ],
						"gridsnaponopen" : 0,
						"statusbarvisible" : 2,
						"toolbarvisible" : 1,
						"boxanimatetime" : 200,
						"imprint" : 0,
						"enablehscroll" : 1,
						"enablevscroll" : 1,
						"devicewidth" : 0.0,
						"description" : "",
						"digest" : "",
						"tags" : "",
						"boxes" : [ 							{
								"box" : 								{
									"fontname" : "Helvetica Neue Light",
									"fontsize" : 14.0,
									"id" : "obj-5",
									"maxclass" : "newobj",
									"numinlets" : 1,
									"numoutlets" : 4,
									"outlettype" : [ "", "", "", "" ],
									"patching_rect" : [ 37.0, 66.0, 65.0, 23.0 ],
									"restore" : 									{
										"sliderR/1" : [ 55.0 ],
										"sliderR/2" : [ 36.0 ],
										"sliderR/3" : [ 9.0 ],
										"sliderR/4" : [ 9.0 ]
									}
,
									"text" : "autopattr",
									"varname" : "u922001776"
								}

							}
, 							{
								"box" : 								{
									"id" : "obj-4",
									"maxclass" : "live.dial",
									"numinlets" : 1,
									"numoutlets" : 2,
									"outlettype" : [ "", "float" ],
									"parameter_enable" : 1,
									"patching_rect" : [ 163.0, 5.0, 44.0, 47.0 ],
									"saved_attribute_attributes" : 									{
										"valueof" : 										{
											"parameter_linknames" : 1,
											"parameter_longname" : "sliderR/4",
											"parameter_shortname" : "sliderR/4",
											"parameter_type" : 0,
											"parameter_unitstyle" : 0
										}

									}
,
									"varname" : "sliderR/4"
								}

							}
, 							{
								"box" : 								{
									"id" : "obj-3",
									"maxclass" : "live.dial",
									"numinlets" : 1,
									"numoutlets" : 2,
									"outlettype" : [ "", "float" ],
									"parameter_enable" : 1,
									"patching_rect" : [ 110.0, 5.0, 44.0, 47.0 ],
									"saved_attribute_attributes" : 									{
										"valueof" : 										{
											"parameter_linknames" : 1,
											"parameter_longname" : "sliderR/3",
											"parameter_shortname" : "sliderR/3",
											"parameter_type" : 0,
											"parameter_unitstyle" : 0
										}

									}
,
									"varname" : "sliderR/3"
								}

							}
, 							{
								"box" : 								{
									"id" : "obj-2",
									"maxclass" : "live.dial",
									"numinlets" : 1,
									"numoutlets" : 2,
									"outlettype" : [ "", "float" ],
									"parameter_enable" : 1,
									"patching_rect" : [ 57.0, 5.0, 44.0, 47.0 ],
									"saved_attribute_attributes" : 									{
										"valueof" : 										{
											"parameter_linknames" : 1,
											"parameter_longname" : "sliderR/2",
											"parameter_shortname" : "sliderR/2",
											"parameter_type" : 0,
											"parameter_unitstyle" : 0
										}

									}
,
									"varname" : "sliderR/2"
								}

							}
, 							{
								"box" : 								{
									"id" : "obj-1",
									"maxclass" : "live.dial",
									"numinlets" : 1,
									"numoutlets" : 2,
									"outlettype" : [ "", "float" ],
									"parameter_enable" : 1,
									"patching_rect" : [ 4.0, 5.0, 44.0, 47.0 ],
									"saved_attribute_attributes" : 									{
										"valueof" : 										{
											"parameter_linknames" : 1,
											"parameter_longname" : "sliderR/1",
											"parameter_shortname" : "sliderR/1",
											"parameter_type" : 0,
											"parameter_unitstyle" : 0
										}

									}
,
									"varname" : "sliderR/1"
								}

							}
 ],
						"lines" : [  ]
					}
,
					"patching_rect" : [ 21.5, 36.0, 218.0, 59.0 ],
					"varname" : "CNTRLR"
				}

			}
, 			{
				"box" : 				{
					"fontname" : "Helvetica Neue Light",
					"fontsize" : 14.0,
					"id" : "obj-3",
					"maxclass" : "newobj",
					"numinlets" : 1,
					"numoutlets" : 5,
					"outlettype" : [ "", "", "", "", "" ],
					"patching_rect" : [ 38.0, 234.5, 171.0, 23.0 ],
					"text" : "regexp CNTRLR::(.+)\\\\s(.+)"
				}

			}
 ],
		"lines" : [ 			{
				"patchline" : 				{
					"destination" : [ "obj-10", 1 ],
					"disabled" : 0,
					"hidden" : 0,
					"midpoints" : [ 263.5, 98.75, 438.5, 98.75 ],
					"source" : [ "obj-11", 0 ]
				}

			}
, 			{
				"patchline" : 				{
					"destination" : [ "obj-2", 0 ],
					"disabled" : 0,
					"hidden" : 0,
					"midpoints" : [ 263.5, 142.75, 47.5, 142.75 ],
					"source" : [ "obj-11", 0 ]
				}

			}
, 			{
				"patchline" : 				{
					"destination" : [ "obj-11", 0 ],
					"disabled" : 0,
					"hidden" : 0,
					"source" : [ "obj-12", 0 ]
				}

			}
, 			{
				"patchline" : 				{
					"destination" : [ "obj-12", 0 ],
					"disabled" : 0,
					"hidden" : 0,
					"source" : [ "obj-14", 0 ]
				}

			}
, 			{
				"patchline" : 				{
					"destination" : [ "obj-3", 0 ],
					"disabled" : 0,
					"hidden" : 0,
					"source" : [ "obj-2", 0 ]
				}

			}
, 			{
				"patchline" : 				{
					"destination" : [ "obj-5", 1 ],
					"disabled" : 0,
					"hidden" : 0,
					"midpoints" : [ 47.5, 179.5, 229.5, 179.5 ],
					"source" : [ "obj-2", 0 ]
				}

			}
, 			{
				"patchline" : 				{
					"destination" : [ "obj-12", 1 ],
					"disabled" : 0,
					"hidden" : 0,
					"source" : [ "obj-25", 0 ]
				}

			}
, 			{
				"patchline" : 				{
					"destination" : [ "obj-23", 0 ],
					"disabled" : 0,
					"hidden" : 0,
					"midpoints" : [ 85.5, 273.75, 31.0, 273.75 ],
					"source" : [ "obj-3", 1 ]
				}

			}
, 			{
				"patchline" : 				{
					"destination" : [ "obj-8", 1 ],
					"disabled" : 0,
					"hidden" : 0,
					"midpoints" : [ 85.5, 263.5, 384.5, 263.5 ],
					"source" : [ "obj-3", 1 ]
				}

			}
, 			{
				"patchline" : 				{
					"destination" : [ "obj-9", 0 ],
					"disabled" : 0,
					"hidden" : 0,
					"source" : [ "obj-3", 1 ]
				}

			}
, 			{
				"patchline" : 				{
					"destination" : [ "obj-20", 1 ],
					"disabled" : 0,
					"hidden" : 0,
					"midpoints" : [ 119.5, 331.5, 135.5, 331.5 ],
					"source" : [ "obj-9", 1 ]
				}

			}
 ],
		"parameters" : 		{
			"obj-1::obj-2" : [ "sliderR/2", "sliderR/2", 0 ],
			"obj-22::obj-19" : [ "sliderR/1", "sliderR/1", 0 ],
			"obj-1::obj-3" : [ "sliderR/3", "sliderR/3", 0 ],
			"obj-1::obj-1" : [ "sliderR/1", "sliderR/1", 0 ],
			"obj-1::obj-4" : [ "sliderR/4", "sliderR/4", 0 ]
		}
,
		"dependency_cache" : [  ]
	}

}
