{
	"patcher" : 	{
		"fileversion" : 1,
		"appversion" : 		{
			"major" : 6,
			"minor" : 1,
			"revision" : 7,
			"architecture" : "x86"
		}
,
		"rect" : [ 68.0, 44.0, 809.0, 727.0 ],
		"bglocked" : 0,
		"openinpresentation" : 0,
		"default_fontsize" : 14.0,
		"default_fontface" : 0,
		"default_fontname" : "Helvetica Neue Light",
		"gridonopen" : 0,
		"gridsize" : [ 15.0, 15.0 ],
		"gridsnaponopen" : 0,
		"statusbarvisible" : 2,
		"toolbarvisible" : 1,
		"boxanimatetime" : 200,
		"imprint" : 0,
		"enablehscroll" : 1,
		"enablevscroll" : 1,
		"devicewidth" : 0.0,
		"description" : "",
		"digest" : "",
		"tags" : "",
		"boxes" : [ 			{
				"box" : 				{
					"fontname" : "Helvetica Neue Light",
					"fontsize" : 14.0,
					"id" : "obj-35",
					"maxclass" : "newobj",
					"numinlets" : 1,
					"numoutlets" : 1,
					"outlettype" : [ "" ],
					"patcher" : 					{
						"fileversion" : 1,
						"appversion" : 						{
							"major" : 6,
							"minor" : 1,
							"revision" : 7,
							"architecture" : "x86"
						}
,
						"rect" : [ 0.0, 0.0, 640.0, 480.0 ],
						"bglocked" : 0,
						"openinpresentation" : 0,
						"default_fontsize" : 14.0,
						"default_fontface" : 0,
						"default_fontname" : "Helvetica Neue Light",
						"gridonopen" : 0,
						"gridsize" : [ 5.0, 5.0 ],
						"gridsnaponopen" : 0,
						"statusbarvisible" : 2,
						"toolbarvisible" : 1,
						"boxanimatetime" : 200,
						"imprint" : 0,
						"enablehscroll" : 1,
						"enablevscroll" : 1,
						"devicewidth" : 0.0,
						"description" : "",
						"digest" : "",
						"tags" : "",
						"boxes" : [ 							{
								"box" : 								{
									"fontname" : "Helvetica Neue Light",
									"fontsize" : 14.0,
									"id" : "obj-226",
									"maxclass" : "newobj",
									"numinlets" : 1,
									"numoutlets" : 1,
									"outlettype" : [ "" ],
									"patching_rect" : [ 50.0, 300.309052, 22.0, 23.0 ],
									"text" : "t l"
								}

							}
, 							{
								"box" : 								{
									"fontname" : "Helvetica Neue Light",
									"fontsize" : 14.0,
									"id" : "obj-223",
									"maxclass" : "newobj",
									"numinlets" : 1,
									"numoutlets" : 1,
									"outlettype" : [ "" ],
									"patching_rect" : [ 58.5, 345.118103, 132.0, 23.0 ],
									"text" : "prepend script send"
								}

							}
, 							{
								"box" : 								{
									"fontname" : "Helvetica Neue Light",
									"fontsize" : 14.0,
									"id" : "obj-187",
									"maxclass" : "newobj",
									"numinlets" : 1,
									"numoutlets" : 2,
									"outlettype" : [ "int", "int" ],
									"patching_rect" : [ 50.5, 146.809052, 79.0, 23.0 ],
									"text" : "unpack 0 0"
								}

							}
, 							{
								"box" : 								{
									"fontname" : "Helvetica Neue Light",
									"fontsize" : 14.0,
									"id" : "obj-185",
									"maxclass" : "newobj",
									"numinlets" : 2,
									"numoutlets" : 1,
									"outlettype" : [ "" ],
									"patching_rect" : [ 50.5, 267.809052, 63.0, 23.0 ],
									"text" : "pack s 0"
								}

							}
, 							{
								"box" : 								{
									"fontname" : "Helvetica Neue Light",
									"fontsize" : 14.0,
									"id" : "obj-186",
									"maxclass" : "newobj",
									"numinlets" : 2,
									"numoutlets" : 2,
									"outlettype" : [ "", "" ],
									"patching_rect" : [ 50.5, 228.809052, 90.0, 23.0 ],
									"text" : "route symbol"
								}

							}
, 							{
								"box" : 								{
									"fontname" : "Helvetica Neue Light",
									"fontsize" : 14.0,
									"id" : "obj-184",
									"maxclass" : "newobj",
									"numinlets" : 2,
									"numoutlets" : 1,
									"outlettype" : [ "" ],
									"patching_rect" : [ 167.5, 259.809052, 63.0, 23.0 ],
									"text" : "pack s 0"
								}

							}
, 							{
								"box" : 								{
									"fontname" : "Helvetica Neue Light",
									"fontsize" : 14.0,
									"id" : "obj-183",
									"maxclass" : "newobj",
									"numinlets" : 2,
									"numoutlets" : 2,
									"outlettype" : [ "", "" ],
									"patching_rect" : [ 167.5, 220.809052, 90.0, 23.0 ],
									"text" : "route symbol"
								}

							}
, 							{
								"box" : 								{
									"fontname" : "Helvetica Neue Light",
									"fontsize" : 14.0,
									"id" : "obj-182",
									"linecount" : 2,
									"maxclass" : "message",
									"numinlets" : 2,
									"numoutlets" : 1,
									"outlettype" : [ "" ],
									"patching_rect" : [ 171.5, 300.309052, 64.0, 38.0 ],
									"text" : "padcc/4 0"
								}

							}
, 							{
								"box" : 								{
									"coll_data" : 									{
										"count" : 10,
										"data" : [ 											{
												"key" : 1,
												"value" : [ "slider/1" ]
											}
, 											{
												"key" : 2,
												"value" : [ "slider/2" ]
											}
, 											{
												"key" : 3,
												"value" : [ "slider/3" ]
											}
, 											{
												"key" : 5,
												"value" : [ "accel/1" ]
											}
, 											{
												"key" : 6,
												"value" : [ "accel/2" ]
											}
, 											{
												"key" : 7,
												"value" : [ "accel/3" ]
											}
, 											{
												"key" : 36,
												"value" : [ "padcc/1" ]
											}
, 											{
												"key" : 37,
												"value" : [ "padcc/2" ]
											}
, 											{
												"key" : 38,
												"value" : [ "padcc/3" ]
											}
, 											{
												"key" : 39,
												"value" : [ "padcc/4" ]
											}
 ]
									}
,
									"fontname" : "Helvetica Neue Light",
									"fontsize" : 14.0,
									"id" : "obj-181",
									"maxclass" : "newobj",
									"numinlets" : 1,
									"numoutlets" : 4,
									"outlettype" : [ "", "", "", "" ],
									"patching_rect" : [ 167.5, 180.809052, 82.0, 23.0 ],
									"saved_object_attributes" : 									{
										"embed" : 1
									}
,
									"text" : "coll gw_ccs"
								}

							}
, 							{
								"box" : 								{
									"fontname" : "Helvetica Neue Light",
									"fontsize" : 14.0,
									"id" : "obj-180",
									"maxclass" : "message",
									"numinlets" : 2,
									"numoutlets" : 1,
									"outlettype" : [ "" ],
									"patching_rect" : [ 81.0, 300.309052, 87.0, 21.0 ],
									"text" : "button/1 0"
								}

							}
, 							{
								"box" : 								{
									"coll_data" : 									{
										"count" : 18,
										"data" : [ 											{
												"key" : 1,
												"value" : [ "slidertouch/1" ]
											}
, 											{
												"key" : 2,
												"value" : [ "slidertouch/2" ]
											}
, 											{
												"key" : 3,
												"value" : [ "slidertouch/3" ]
											}
, 											{
												"key" : 4,
												"value" : [ "accelbtn/1" ]
											}
, 											{
												"key" : 36,
												"value" : [ "pad/1" ]
											}
, 											{
												"key" : 37,
												"value" : [ "pad/2" ]
											}
, 											{
												"key" : 38,
												"value" : [ "pad/3" ]
											}
, 											{
												"key" : 39,
												"value" : [ "pad/4" ]
											}
, 											{
												"key" : 40,
												"value" : [ "arrow/1" ]
											}
, 											{
												"key" : 41,
												"value" : [ "arrow/2" ]
											}
, 											{
												"key" : 42,
												"value" : [ "button/1" ]
											}
, 											{
												"key" : 43,
												"value" : [ "button/2" ]
											}
, 											{
												"key" : 44,
												"value" : [ "button/3" ]
											}
, 											{
												"key" : 45,
												"value" : [ "button/4" ]
											}
, 											{
												"key" : 46,
												"value" : [ "sidebtn/1" ]
											}
, 											{
												"key" : 47,
												"value" : [ "sidebtn/2" ]
											}
, 											{
												"key" : 48,
												"value" : [ "sidebtn/3" ]
											}
, 											{
												"key" : 49,
												"value" : [ "sidebtn/4" ]
											}
 ]
									}
,
									"fontname" : "Helvetica Neue Light",
									"fontsize" : 14.0,
									"id" : "obj-178",
									"maxclass" : "newobj",
									"numinlets" : 1,
									"numoutlets" : 4,
									"outlettype" : [ "", "", "", "" ],
									"patching_rect" : [ 50.5, 188.809052, 107.0, 23.0 ],
									"saved_object_attributes" : 									{
										"embed" : 1
									}
,
									"text" : "coll gw_buttons"
								}

							}
, 							{
								"box" : 								{
									"fontname" : "Helvetica Neue Light",
									"fontsize" : 14.0,
									"id" : "obj-140",
									"maxclass" : "newobj",
									"numinlets" : 1,
									"numoutlets" : 2,
									"outlettype" : [ "int", "int" ],
									"patching_rect" : [ 167.5, 146.809052, 79.0, 23.0 ],
									"text" : "unpack 0 0"
								}

							}
, 							{
								"box" : 								{
									"fontname" : "Helvetica Neue Light",
									"fontsize" : 14.0,
									"id" : "obj-139",
									"maxclass" : "newobj",
									"numinlets" : 1,
									"numoutlets" : 7,
									"outlettype" : [ "", "", "", "int", "int", "int", "int" ],
									"patching_rect" : [ 50.5, 100.0, 74.0, 23.0 ],
									"text" : "midiparse"
								}

							}
, 							{
								"box" : 								{
									"comment" : "",
									"id" : "obj-31",
									"maxclass" : "inlet",
									"numinlets" : 0,
									"numoutlets" : 1,
									"outlettype" : [ "int" ],
									"patching_rect" : [ 50.5, 40.0, 25.0, 25.0 ]
								}

							}
, 							{
								"box" : 								{
									"comment" : "",
									"id" : "obj-33",
									"maxclass" : "outlet",
									"numinlets" : 1,
									"numoutlets" : 0,
									"patching_rect" : [ 58.5, 428.118103, 25.0, 25.0 ]
								}

							}
 ],
						"lines" : [ 							{
								"patchline" : 								{
									"destination" : [ "obj-140", 0 ],
									"disabled" : 0,
									"hidden" : 0,
									"midpoints" : [ 78.333336, 138.404526, 177.0, 138.404526 ],
									"source" : [ "obj-139", 2 ]
								}

							}
, 							{
								"patchline" : 								{
									"destination" : [ "obj-187", 0 ],
									"disabled" : 0,
									"hidden" : 0,
									"midpoints" : [ 60.0, 127.809082, 60.0, 127.809082 ],
									"source" : [ "obj-139", 0 ]
								}

							}
, 							{
								"patchline" : 								{
									"destination" : [ "obj-181", 0 ],
									"disabled" : 0,
									"hidden" : 0,
									"source" : [ "obj-140", 0 ]
								}

							}
, 							{
								"patchline" : 								{
									"destination" : [ "obj-184", 1 ],
									"disabled" : 0,
									"hidden" : 0,
									"source" : [ "obj-140", 1 ]
								}

							}
, 							{
								"patchline" : 								{
									"destination" : [ "obj-186", 0 ],
									"disabled" : 0,
									"hidden" : 0,
									"source" : [ "obj-178", 0 ]
								}

							}
, 							{
								"patchline" : 								{
									"destination" : [ "obj-183", 0 ],
									"disabled" : 0,
									"hidden" : 0,
									"source" : [ "obj-181", 0 ]
								}

							}
, 							{
								"patchline" : 								{
									"destination" : [ "obj-184", 0 ],
									"disabled" : 0,
									"hidden" : 0,
									"source" : [ "obj-183", 0 ]
								}

							}
, 							{
								"patchline" : 								{
									"destination" : [ "obj-182", 1 ],
									"disabled" : 0,
									"hidden" : 0,
									"source" : [ "obj-184", 0 ]
								}

							}
, 							{
								"patchline" : 								{
									"destination" : [ "obj-226", 0 ],
									"disabled" : 0,
									"hidden" : 0,
									"midpoints" : [ 177.0, 294.059052, 59.5, 294.059052 ],
									"source" : [ "obj-184", 0 ]
								}

							}
, 							{
								"patchline" : 								{
									"destination" : [ "obj-180", 1 ],
									"disabled" : 0,
									"hidden" : 0,
									"source" : [ "obj-185", 0 ]
								}

							}
, 							{
								"patchline" : 								{
									"destination" : [ "obj-226", 0 ],
									"disabled" : 0,
									"hidden" : 0,
									"source" : [ "obj-185", 0 ]
								}

							}
, 							{
								"patchline" : 								{
									"destination" : [ "obj-185", 0 ],
									"disabled" : 0,
									"hidden" : 0,
									"source" : [ "obj-186", 0 ]
								}

							}
, 							{
								"patchline" : 								{
									"destination" : [ "obj-178", 0 ],
									"disabled" : 0,
									"hidden" : 0,
									"source" : [ "obj-187", 0 ]
								}

							}
, 							{
								"patchline" : 								{
									"destination" : [ "obj-185", 1 ],
									"disabled" : 0,
									"hidden" : 0,
									"source" : [ "obj-187", 1 ]
								}

							}
, 							{
								"patchline" : 								{
									"destination" : [ "obj-33", 0 ],
									"disabled" : 0,
									"hidden" : 0,
									"source" : [ "obj-223", 0 ]
								}

							}
, 							{
								"patchline" : 								{
									"destination" : [ "obj-223", 0 ],
									"disabled" : 0,
									"hidden" : 0,
									"midpoints" : [ 59.5, 333.713593, 68.0, 333.713593 ],
									"source" : [ "obj-226", 0 ]
								}

							}
, 							{
								"patchline" : 								{
									"destination" : [ "obj-139", 0 ],
									"disabled" : 0,
									"hidden" : 0,
									"source" : [ "obj-31", 0 ]
								}

							}
 ]
					}
,
					"patching_rect" : [ 197.333313, 55.072845, 89.0, 23.0 ],
					"saved_object_attributes" : 					{
						"default_fontface" : 0,
						"default_fontname" : "Helvetica Neue Light",
						"default_fontsize" : 14.0,
						"description" : "",
						"digest" : "",
						"fontface" : 0,
						"fontname" : "Helvetica Neue Light",
						"fontsize" : 14.0,
						"globalpatchername" : "",
						"tags" : ""
					}
,
					"text" : "p MIDI_to_UI"
				}

			}
, 			{
				"box" : 				{
					"fontname" : "Helvetica Neue Light",
					"fontsize" : 14.0,
					"id" : "obj-29",
					"maxclass" : "newobj",
					"numinlets" : 1,
					"numoutlets" : 1,
					"outlettype" : [ "int" ],
					"patcher" : 					{
						"fileversion" : 1,
						"appversion" : 						{
							"major" : 6,
							"minor" : 1,
							"revision" : 7,
							"architecture" : "x86"
						}
,
						"rect" : [ 50.0, 94.0, 640.0, 480.0 ],
						"bglocked" : 0,
						"openinpresentation" : 0,
						"default_fontsize" : 14.0,
						"default_fontface" : 0,
						"default_fontname" : "Helvetica Neue Light",
						"gridonopen" : 0,
						"gridsize" : [ 5.0, 5.0 ],
						"gridsnaponopen" : 0,
						"statusbarvisible" : 2,
						"toolbarvisible" : 1,
						"boxanimatetime" : 200,
						"imprint" : 0,
						"enablehscroll" : 1,
						"enablevscroll" : 1,
						"devicewidth" : 0.0,
						"description" : "",
						"digest" : "",
						"tags" : "",
						"boxes" : [ 							{
								"box" : 								{
									"bubble" : 1,
									"bubbleside" : 3,
									"fontface" : 2,
									"fontname" : "Helvetica Neue Light",
									"fontsize" : 14.0,
									"frgb" : 0.0,
									"id" : "obj-80",
									"linecount" : 2,
									"maxclass" : "comment",
									"numinlets" : 1,
									"numoutlets" : 0,
									"patching_rect" : [ 50.0, 200.5, 122.333374, 43.0 ],
									"text" : "convert name into CC number"
								}

							}
, 							{
								"box" : 								{
									"bubble" : 1,
									"bubbleside" : 0,
									"fontface" : 2,
									"fontname" : "Helvetica Neue Light",
									"fontsize" : 14.0,
									"frgb" : 0.0,
									"id" : "obj-79",
									"linecount" : 3,
									"maxclass" : "comment",
									"numinlets" : 1,
									"numoutlets" : 0,
									"patching_rect" : [ 315.833374, 235.0, 122.333374, 74.0 ],
									"text" : "each control has an off/on color pair"
								}

							}
, 							{
								"box" : 								{
									"fontname" : "Helvetica Neue Light",
									"fontsize" : 14.0,
									"id" : "obj-67",
									"maxclass" : "newobj",
									"numinlets" : 1,
									"numoutlets" : 1,
									"outlettype" : [ "" ],
									"patching_rect" : [ 326.166687, 100.0, 21.0, 23.0 ],
									"text" : "t l"
								}

							}
, 							{
								"box" : 								{
									"fontface" : 2,
									"fontname" : "Helvetica Neue Light",
									"fontsize" : 14.0,
									"frgb" : 0.0,
									"id" : "obj-50",
									"maxclass" : "comment",
									"numinlets" : 1,
									"numoutlets" : 0,
									"patching_rect" : [ 532.166748, 270.5, 68.0, 23.0 ],
									"text" : "cc#,value"
								}

							}
, 							{
								"box" : 								{
									"fontface" : 2,
									"fontname" : "Helvetica Neue Light",
									"fontsize" : 14.0,
									"frgb" : 0.0,
									"id" : "obj-48",
									"maxclass" : "comment",
									"numinlets" : 1,
									"numoutlets" : 0,
									"patching_rect" : [ 242.333374, 320.5, 93.0, 23.0 ],
									"text" : "note#,velocity"
								}

							}
, 							{
								"box" : 								{
									"fontname" : "Helvetica Neue Light",
									"fontsize" : 14.0,
									"id" : "obj-44",
									"maxclass" : "newobj",
									"numinlets" : 2,
									"numoutlets" : 1,
									"outlettype" : [ "" ],
									"patching_rect" : [ 172.333374, 320.0, 63.0, 23.0 ],
									"text" : "pack 0 0"
								}

							}
, 							{
								"box" : 								{
									"coll_data" : 									{
										"count" : 9,
										"data" : [ 											{
												"key" : "white",
												"value" : [ 1 ]
											}
, 											{
												"key" : "cyan",
												"value" : [ 4 ]
											}
, 											{
												"key" : "magenta",
												"value" : [ 8 ]
											}
, 											{
												"key" : "red",
												"value" : [ 16 ]
											}
, 											{
												"key" : "blue",
												"value" : [ 32 ]
											}
, 											{
												"key" : "yellow",
												"value" : [ 64 ]
											}
, 											{
												"key" : "green",
												"value" : [ 127 ]
											}
, 											{
												"key" : "black",
												"value" : [ 0 ]
											}
, 											{
												"key" : "off",
												"value" : [ 0 ]
											}
 ]
									}
,
									"fontname" : "Helvetica Neue Light",
									"fontsize" : 14.0,
									"id" : "obj-84",
									"maxclass" : "newobj",
									"numinlets" : 1,
									"numoutlets" : 4,
									"outlettype" : [ "", "", "", "" ],
									"patching_rect" : [ 185.333374, 283.5, 96.0, 23.0 ],
									"saved_object_attributes" : 									{
										"embed" : 1
									}
,
									"text" : "coll colorveloc"
								}

							}
, 							{
								"box" : 								{
									"fontname" : "Helvetica Neue Light",
									"fontsize" : 14.0,
									"id" : "obj-42",
									"maxclass" : "newobj",
									"numinlets" : 1,
									"numoutlets" : 1,
									"outlettype" : [ "int" ],
									"patching_rect" : [ 235.333374, 176.5, 21.0, 23.0 ],
									"text" : "t i"
								}

							}
, 							{
								"box" : 								{
									"fontname" : "Helvetica Neue Light",
									"fontsize" : 14.0,
									"id" : "obj-83",
									"maxclass" : "newobj",
									"numinlets" : 2,
									"numoutlets" : 2,
									"outlettype" : [ "", "" ],
									"patching_rect" : [ 185.333374, 251.0, 68.0, 23.0 ],
									"text" : "zl mth 0"
								}

							}
, 							{
								"box" : 								{
									"fontname" : "Helvetica Neue Light",
									"fontsize" : 14.0,
									"id" : "obj-39",
									"maxclass" : "newobj",
									"numinlets" : 1,
									"numoutlets" : 2,
									"outlettype" : [ "", "float" ],
									"patching_rect" : [ 173.333374, 146.5, 81.0, 23.0 ],
									"text" : "unpack s 0."
								}

							}
, 							{
								"box" : 								{
									"fontname" : "Helvetica Neue Light",
									"fontsize" : 14.0,
									"id" : "obj-37",
									"maxclass" : "newobj",
									"numinlets" : 7,
									"numoutlets" : 1,
									"outlettype" : [ "int" ],
									"patching_rect" : [ 325.666748, 372.0, 100.0, 23.0 ],
									"text" : "midiformat"
								}

							}
, 							{
								"box" : 								{
									"fontname" : "Helvetica Neue Light",
									"fontsize" : 14.0,
									"id" : "obj-33",
									"maxclass" : "newobj",
									"numinlets" : 2,
									"numoutlets" : 1,
									"outlettype" : [ "" ],
									"patching_rect" : [ 469.166748, 270.5, 63.0, 23.0 ],
									"text" : "pack 0 0"
								}

							}
, 							{
								"box" : 								{
									"fontname" : "Helvetica Neue Light",
									"fontsize" : 14.0,
									"id" : "obj-31",
									"maxclass" : "newobj",
									"numinlets" : 1,
									"numoutlets" : 2,
									"outlettype" : [ "", "float" ],
									"patching_rect" : [ 470.166748, 208.5, 81.0, 23.0 ],
									"text" : "unpack s 0."
								}

							}
, 							{
								"box" : 								{
									"coll_data" : 									{
										"count" : 11,
										"data" : [ 											{
												"key" : "accelbtn/1",
												"value" : [ "white", "blue" ]
											}
, 											{
												"key" : "pad/1",
												"value" : [ "white", "green" ]
											}
, 											{
												"key" : "pad/2",
												"value" : [ "white", "green" ]
											}
, 											{
												"key" : "pad/3",
												"value" : [ "white", "green" ]
											}
, 											{
												"key" : "pad/4",
												"value" : [ "white", "green" ]
											}
, 											{
												"key" : "arrow/1",
												"value" : [ "white", "green" ]
											}
, 											{
												"key" : "arrow/2",
												"value" : [ "white", "green" ]
											}
, 											{
												"key" : "button/1",
												"value" : [ "white", "green" ]
											}
, 											{
												"key" : "button/2",
												"value" : [ "white", "green" ]
											}
, 											{
												"key" : "button/3",
												"value" : [ "white", "green" ]
											}
, 											{
												"key" : "button/4",
												"value" : [ "white", "green" ]
											}
 ]
									}
,
									"fontname" : "Helvetica Neue Light",
									"fontsize" : 14.0,
									"id" : "obj-25",
									"maxclass" : "newobj",
									"numinlets" : 1,
									"numoutlets" : 4,
									"outlettype" : [ "", "", "", "" ],
									"patching_rect" : [ 305.500061, 208.5, 143.0, 23.0 ],
									"saved_object_attributes" : 									{
										"embed" : 1
									}
,
									"text" : "coll gw_buttons_color"
								}

							}
, 							{
								"box" : 								{
									"coll_data" : 									{
										"count" : 10,
										"data" : [ 											{
												"key" : "slider/1",
												"value" : [ 1 ]
											}
, 											{
												"key" : "slider/2",
												"value" : [ 2 ]
											}
, 											{
												"key" : "slider/3",
												"value" : [ 3 ]
											}
, 											{
												"key" : "accel/1",
												"value" : [ 5 ]
											}
, 											{
												"key" : "accel/2",
												"value" : [ 6 ]
											}
, 											{
												"key" : "accel/3",
												"value" : [ 7 ]
											}
, 											{
												"key" : "padcc/1",
												"value" : [ 36 ]
											}
, 											{
												"key" : "padcc/2",
												"value" : [ 37 ]
											}
, 											{
												"key" : "padcc/3",
												"value" : [ 38 ]
											}
, 											{
												"key" : "padcc/4",
												"value" : [ 39 ]
											}
 ]
									}
,
									"fontname" : "Helvetica Neue Light",
									"fontsize" : 14.0,
									"id" : "obj-19",
									"maxclass" : "newobj",
									"numinlets" : 1,
									"numoutlets" : 4,
									"outlettype" : [ "", "", "", "" ],
									"patching_rect" : [ 469.166748, 238.5, 108.0, 23.0 ],
									"saved_object_attributes" : 									{
										"embed" : 1
									}
,
									"text" : "coll gw_ccs_out"
								}

							}
, 							{
								"box" : 								{
									"coll_data" : 									{
										"count" : 18,
										"data" : [ 											{
												"key" : "slidertouch/1",
												"value" : [ 1 ]
											}
, 											{
												"key" : "slidertouch/2",
												"value" : [ 2 ]
											}
, 											{
												"key" : "slidertouch/3",
												"value" : [ 3 ]
											}
, 											{
												"key" : "accelbtn/1",
												"value" : [ 4 ]
											}
, 											{
												"key" : "pad/1",
												"value" : [ 36 ]
											}
, 											{
												"key" : "pad/2",
												"value" : [ 37 ]
											}
, 											{
												"key" : "pad/3",
												"value" : [ 38 ]
											}
, 											{
												"key" : "pad/4",
												"value" : [ 39 ]
											}
, 											{
												"key" : "arrow/1",
												"value" : [ 40 ]
											}
, 											{
												"key" : "arrow/2",
												"value" : [ 41 ]
											}
, 											{
												"key" : "button/1",
												"value" : [ 42 ]
											}
, 											{
												"key" : "button/2",
												"value" : [ 43 ]
											}
, 											{
												"key" : "button/3",
												"value" : [ 44 ]
											}
, 											{
												"key" : "button/4",
												"value" : [ 45 ]
											}
, 											{
												"key" : "sidebtn/1",
												"value" : [ 46 ]
											}
, 											{
												"key" : "sidebtn/2",
												"value" : [ 47 ]
											}
, 											{
												"key" : "sidebtn/3",
												"value" : [ 48 ]
											}
, 											{
												"key" : "sidebtn/4",
												"value" : [ 49 ]
											}
 ]
									}
,
									"fontname" : "Helvetica Neue Light",
									"fontsize" : 14.0,
									"id" : "obj-4",
									"maxclass" : "newobj",
									"numinlets" : 1,
									"numoutlets" : 4,
									"outlettype" : [ "", "", "", "" ],
									"patching_rect" : [ 172.333374, 208.5, 132.0, 23.0 ],
									"saved_object_attributes" : 									{
										"embed" : 1
									}
,
									"text" : "coll gw_buttons_out"
								}

							}
, 							{
								"box" : 								{
									"comment" : "",
									"id" : "obj-23",
									"maxclass" : "inlet",
									"numinlets" : 0,
									"numoutlets" : 1,
									"outlettype" : [ "" ],
									"patching_rect" : [ 326.166687, 40.0, 25.0, 25.0 ]
								}

							}
, 							{
								"box" : 								{
									"comment" : "",
									"id" : "obj-27",
									"maxclass" : "outlet",
									"numinlets" : 1,
									"numoutlets" : 0,
									"patching_rect" : [ 325.666748, 455.0, 25.0, 25.0 ]
								}

							}
 ],
						"lines" : [ 							{
								"patchline" : 								{
									"destination" : [ "obj-33", 0 ],
									"disabled" : 0,
									"hidden" : 0,
									"source" : [ "obj-19", 0 ]
								}

							}
, 							{
								"patchline" : 								{
									"destination" : [ "obj-67", 0 ],
									"disabled" : 0,
									"hidden" : 0,
									"source" : [ "obj-23", 0 ]
								}

							}
, 							{
								"patchline" : 								{
									"destination" : [ "obj-83", 0 ],
									"disabled" : 0,
									"hidden" : 0,
									"midpoints" : [ 315.000061, 240.75, 194.833374, 240.75 ],
									"source" : [ "obj-25", 0 ]
								}

							}
, 							{
								"patchline" : 								{
									"destination" : [ "obj-19", 0 ],
									"disabled" : 0,
									"hidden" : 0,
									"source" : [ "obj-31", 0 ]
								}

							}
, 							{
								"patchline" : 								{
									"destination" : [ "obj-33", 1 ],
									"disabled" : 0,
									"hidden" : 0,
									"source" : [ "obj-31", 1 ]
								}

							}
, 							{
								"patchline" : 								{
									"destination" : [ "obj-37", 2 ],
									"disabled" : 0,
									"hidden" : 0,
									"midpoints" : [ 478.666748, 356.25, 362.166748, 356.25 ],
									"source" : [ "obj-33", 0 ]
								}

							}
, 							{
								"patchline" : 								{
									"destination" : [ "obj-27", 0 ],
									"disabled" : 0,
									"hidden" : 0,
									"source" : [ "obj-37", 0 ]
								}

							}
, 							{
								"patchline" : 								{
									"destination" : [ "obj-25", 0 ],
									"disabled" : 0,
									"hidden" : 0,
									"midpoints" : [ 182.833374, 202.5, 315.000061, 202.5 ],
									"source" : [ "obj-39", 0 ]
								}

							}
, 							{
								"patchline" : 								{
									"destination" : [ "obj-4", 0 ],
									"disabled" : 0,
									"hidden" : 0,
									"source" : [ "obj-39", 0 ]
								}

							}
, 							{
								"patchline" : 								{
									"destination" : [ "obj-42", 0 ],
									"disabled" : 0,
									"hidden" : 0,
									"source" : [ "obj-39", 1 ]
								}

							}
, 							{
								"patchline" : 								{
									"destination" : [ "obj-44", 0 ],
									"disabled" : 0,
									"hidden" : 0,
									"source" : [ "obj-4", 0 ]
								}

							}
, 							{
								"patchline" : 								{
									"destination" : [ "obj-83", 1 ],
									"disabled" : 0,
									"hidden" : 0,
									"source" : [ "obj-42", 0 ]
								}

							}
, 							{
								"patchline" : 								{
									"destination" : [ "obj-37", 0 ],
									"disabled" : 0,
									"hidden" : 0,
									"midpoints" : [ 181.833374, 357.0, 335.166748, 357.0 ],
									"source" : [ "obj-44", 0 ]
								}

							}
, 							{
								"patchline" : 								{
									"destination" : [ "obj-31", 0 ],
									"disabled" : 0,
									"hidden" : 0,
									"midpoints" : [ 335.666687, 179.5, 479.666748, 179.5 ],
									"source" : [ "obj-67", 0 ]
								}

							}
, 							{
								"patchline" : 								{
									"destination" : [ "obj-39", 0 ],
									"disabled" : 0,
									"hidden" : 0,
									"midpoints" : [ 335.666687, 133.25, 182.833374, 133.25 ],
									"source" : [ "obj-67", 0 ]
								}

							}
, 							{
								"patchline" : 								{
									"destination" : [ "obj-84", 0 ],
									"disabled" : 0,
									"hidden" : 0,
									"source" : [ "obj-83", 0 ]
								}

							}
, 							{
								"patchline" : 								{
									"destination" : [ "obj-44", 1 ],
									"disabled" : 0,
									"hidden" : 0,
									"midpoints" : [ 194.833374, 313.75, 225.833374, 313.75 ],
									"source" : [ "obj-84", 0 ]
								}

							}
 ]
					}
,
					"patching_rect" : [ 91.666626, 334.500031, 137.0, 23.0 ],
					"saved_object_attributes" : 					{
						"default_fontface" : 0,
						"default_fontname" : "Helvetica Neue Light",
						"default_fontsize" : 14.0,
						"description" : "",
						"digest" : "",
						"fontface" : 0,
						"fontname" : "Helvetica Neue Light",
						"fontsize" : 14.0,
						"globalpatchername" : "",
						"tags" : ""
					}
,
					"text" : "p messages_to_MIDI"
				}

			}
, 			{
				"box" : 				{
					"fontname" : "Arial",
					"fontsize" : 13.0,
					"id" : "obj-2",
					"linecount" : 2,
					"maxclass" : "newobj",
					"numinlets" : 1,
					"numoutlets" : 1,
					"outlettype" : [ "" ],
					"patching_rect" : [ 117.166687, 261.000031, 302.583344, 36.0 ],
					"saved_object_attributes" : 					{
						"client_rect" : [ 4, 44, 358, 172 ],
						"parameter_enable" : 0,
						"storage_rect" : [ 766, 44, 1220, 302 ]
					}
,
					"text" : "pattrstorage gwing_psto @savemode 0 @outputmode 2 @autorestore 0",
					"varname" : "gwing_psto"
				}

			}
, 			{
				"box" : 				{
					"fontname" : "Helvetica Neue Light",
					"fontsize" : 14.0,
					"id" : "obj-6",
					"maxclass" : "textbutton",
					"mode" : 1,
					"numinlets" : 1,
					"numoutlets" : 3,
					"outlettype" : [ "", "", "int" ],
					"parameter_enable" : 0,
					"patching_rect" : [ 322.250061, 518.0, 100.0, 20.0 ],
					"rounded" : 2.0,
					"text" : "off",
					"texton" : "on"
				}

			}
, 			{
				"box" : 				{
					"fontname" : "Helvetica Neue Light",
					"fontsize" : 14.0,
					"id" : "obj-5",
					"maxclass" : "newobj",
					"numinlets" : 2,
					"numoutlets" : 1,
					"outlettype" : [ "" ],
					"patching_rect" : [ 176.416718, 636.5, 37.0, 23.0 ],
					"text" : "gate"
				}

			}
, 			{
				"box" : 				{
					"bubble" : 1,
					"bubbleside" : 2,
					"fontname" : "Helvetica Neue Light",
					"fontsize" : 14.0,
					"frgb" : 0.0,
					"id" : "obj-3",
					"linecount" : 4,
					"maxclass" : "comment",
					"numinlets" : 1,
					"numoutlets" : 0,
					"patching_rect" : [ 269.750031, 426.000031, 150.0, 92.0 ],
					"text" : "spoof real controller with recognizing a sysex request and responding with ID:"
				}

			}
, 			{
				"box" : 				{
					"fontname" : "Helvetica Neue Light",
					"fontsize" : 14.0,
					"id" : "obj-114",
					"maxclass" : "newobj",
					"numinlets" : 2,
					"numoutlets" : 0,
					"patcher" : 					{
						"fileversion" : 1,
						"appversion" : 						{
							"major" : 6,
							"minor" : 1,
							"revision" : 7,
							"architecture" : "x86"
						}
,
						"rect" : [ 50.0, 94.0, 640.0, 480.0 ],
						"bglocked" : 0,
						"openinpresentation" : 0,
						"default_fontsize" : 14.0,
						"default_fontface" : 0,
						"default_fontname" : "Helvetica Neue Light",
						"gridonopen" : 0,
						"gridsize" : [ 15.0, 15.0 ],
						"gridsnaponopen" : 0,
						"statusbarvisible" : 2,
						"toolbarvisible" : 1,
						"boxanimatetime" : 200,
						"imprint" : 0,
						"enablehscroll" : 1,
						"enablevscroll" : 1,
						"devicewidth" : 0.0,
						"description" : "",
						"digest" : "",
						"tags" : "",
						"boxes" : [ 							{
								"box" : 								{
									"fontname" : "Helvetica Neue Light",
									"fontsize" : 14.0,
									"frgb" : 0.0,
									"id" : "obj-2",
									"linecount" : 5,
									"maxclass" : "comment",
									"numinlets" : 1,
									"numoutlets" : 0,
									"patching_rect" : [ 203.0, 52.0, 154.0, 89.0 ],
									"text" : "listens for a product reqeust, replies with an official looking response, complete with product ID."
								}

							}
, 							{
								"box" : 								{
									"fontname" : "Helvetica Neue Light",
									"fontsize" : 10.0,
									"id" : "obj-45",
									"maxclass" : "newobj",
									"numinlets" : 1,
									"numoutlets" : 0,
									"patching_rect" : [ 63.5, 403.0, 42.0, 18.0 ],
									"text" : "midiout"
								}

							}
, 							{
								"box" : 								{
									"fontname" : "Helvetica Neue Light",
									"fontsize" : 10.0,
									"id" : "obj-44",
									"maxclass" : "newobj",
									"numinlets" : 1,
									"numoutlets" : 1,
									"outlettype" : [ "bang" ],
									"patching_rect" : [ 63.5, 320.0, 22.0, 18.0 ],
									"text" : "t b"
								}

							}
, 							{
								"box" : 								{
									"fontname" : "Helvetica Neue Light",
									"fontsize" : 10.0,
									"id" : "obj-43",
									"maxclass" : "newobj",
									"numinlets" : 1,
									"numoutlets" : 1,
									"outlettype" : [ "" ],
									"patching_rect" : [ 63.5, 293.0, 132.0, 18.0 ],
									"text" : "match 240 126 127 6 1 247"
								}

							}
, 							{
								"box" : 								{
									"fontname" : "Helvetica Neue Light",
									"fontsize" : 10.0,
									"id" : "obj-42",
									"maxclass" : "message",
									"numinlets" : 2,
									"numoutlets" : 1,
									"outlettype" : [ "" ],
									"patching_rect" : [ 63.5, 354.0, 194.0, 16.0 ],
									"text" : "240 126 0 6 2 0 1 97 1 0 15 0 0 1 0 0 247"
								}

							}
, 							{
								"box" : 								{
									"fontname" : "Arial",
									"fontsize" : 10.0,
									"id" : "obj-90",
									"maxclass" : "newobj",
									"numinlets" : 1,
									"numoutlets" : 2,
									"outlettype" : [ "int", "bang" ],
									"patching_rect" : [ 50.0, 171.0, 32.5, 18.0 ],
									"text" : "t 0 b"
								}

							}
, 							{
								"box" : 								{
									"fontname" : "Arial",
									"fontsize" : 10.0,
									"id" : "obj-86",
									"maxclass" : "newobj",
									"numinlets" : 2,
									"numoutlets" : 1,
									"outlettype" : [ "" ],
									"patching_rect" : [ 63.5, 234.0, 32.5, 18.0 ],
									"text" : "gate"
								}

							}
, 							{
								"box" : 								{
									"fontname" : "Arial",
									"fontsize" : 10.0,
									"id" : "obj-79",
									"maxclass" : "newobj",
									"numinlets" : 1,
									"numoutlets" : 2,
									"outlettype" : [ "zlclear", "int" ],
									"patching_rect" : [ 118.5, 171.0, 53.0, 18.0 ],
									"text" : "t zlclear 1"
								}

							}
, 							{
								"box" : 								{
									"fontname" : "Arial",
									"fontsize" : 10.0,
									"id" : "obj-27",
									"maxclass" : "newobj",
									"numinlets" : 1,
									"numoutlets" : 0,
									"patching_rect" : [ 91.5, 261.809082, 60.0, 18.0 ],
									"text" : "print SXRX"
								}

							}
, 							{
								"box" : 								{
									"fontname" : "Arial",
									"fontsize" : 10.0,
									"id" : "obj-47",
									"maxclass" : "newobj",
									"numinlets" : 2,
									"numoutlets" : 2,
									"outlettype" : [ "bang", "" ],
									"patching_rect" : [ 63.5, 144.0, 43.0, 18.0 ],
									"text" : "sel 247"
								}

							}
, 							{
								"box" : 								{
									"fontname" : "Arial",
									"fontsize" : 10.0,
									"id" : "obj-51",
									"maxclass" : "newobj",
									"numinlets" : 2,
									"numoutlets" : 2,
									"outlettype" : [ "", "" ],
									"patching_rect" : [ 77.0, 201.0, 46.0, 18.0 ],
									"text" : "zl group"
								}

							}
, 							{
								"box" : 								{
									"fontname" : "Arial",
									"fontsize" : 10.0,
									"id" : "obj-53",
									"maxclass" : "newobj",
									"numinlets" : 2,
									"numoutlets" : 2,
									"outlettype" : [ "bang", "" ],
									"patching_rect" : [ 118.5, 144.0, 43.0, 18.0 ],
									"text" : "sel 240"
								}

							}
, 							{
								"box" : 								{
									"fontname" : "Arial",
									"fontsize" : 10.0,
									"id" : "obj-54",
									"maxclass" : "newobj",
									"numinlets" : 1,
									"numoutlets" : 3,
									"outlettype" : [ "int", "int", "int" ],
									"patching_rect" : [ 63.5, 121.0, 46.0, 18.0 ],
									"text" : "t i i i"
								}

							}
, 							{
								"box" : 								{
									"fontname" : "Arial",
									"fontsize" : 10.0,
									"id" : "obj-55",
									"maxclass" : "newobj",
									"numinlets" : 1,
									"numoutlets" : 1,
									"outlettype" : [ "int" ],
									"patching_rect" : [ 63.5, 100.0, 37.0, 18.0 ],
									"text" : "midiin"
								}

							}
, 							{
								"box" : 								{
									"comment" : "port to midiin object",
									"id" : "obj-112",
									"maxclass" : "inlet",
									"numinlets" : 0,
									"numoutlets" : 1,
									"outlettype" : [ "" ],
									"patching_rect" : [ 63.5, 40.0, 25.0, 25.0 ]
								}

							}
, 							{
								"box" : 								{
									"comment" : "to midiout",
									"id" : "obj-113",
									"maxclass" : "inlet",
									"numinlets" : 0,
									"numoutlets" : 1,
									"outlettype" : [ "" ],
									"patching_rect" : [ 93.5, 40.0, 25.0, 25.0 ]
								}

							}
 ],
						"lines" : [ 							{
								"patchline" : 								{
									"destination" : [ "obj-55", 0 ],
									"disabled" : 0,
									"hidden" : 0,
									"source" : [ "obj-112", 0 ]
								}

							}
, 							{
								"patchline" : 								{
									"destination" : [ "obj-45", 0 ],
									"disabled" : 0,
									"hidden" : 0,
									"source" : [ "obj-113", 0 ]
								}

							}
, 							{
								"patchline" : 								{
									"destination" : [ "obj-45", 0 ],
									"disabled" : 0,
									"hidden" : 0,
									"source" : [ "obj-42", 0 ]
								}

							}
, 							{
								"patchline" : 								{
									"destination" : [ "obj-44", 0 ],
									"disabled" : 0,
									"hidden" : 0,
									"source" : [ "obj-43", 0 ]
								}

							}
, 							{
								"patchline" : 								{
									"destination" : [ "obj-42", 0 ],
									"disabled" : 0,
									"hidden" : 0,
									"source" : [ "obj-44", 0 ]
								}

							}
, 							{
								"patchline" : 								{
									"destination" : [ "obj-90", 0 ],
									"disabled" : 0,
									"hidden" : 0,
									"source" : [ "obj-47", 0 ]
								}

							}
, 							{
								"patchline" : 								{
									"destination" : [ "obj-86", 1 ],
									"disabled" : 0,
									"hidden" : 0,
									"source" : [ "obj-51", 0 ]
								}

							}
, 							{
								"patchline" : 								{
									"destination" : [ "obj-79", 0 ],
									"disabled" : 0,
									"hidden" : 0,
									"source" : [ "obj-53", 0 ]
								}

							}
, 							{
								"patchline" : 								{
									"destination" : [ "obj-47", 0 ],
									"disabled" : 0,
									"hidden" : 0,
									"source" : [ "obj-54", 0 ]
								}

							}
, 							{
								"patchline" : 								{
									"destination" : [ "obj-51", 0 ],
									"disabled" : 0,
									"hidden" : 0,
									"source" : [ "obj-54", 1 ]
								}

							}
, 							{
								"patchline" : 								{
									"destination" : [ "obj-53", 0 ],
									"disabled" : 0,
									"hidden" : 0,
									"source" : [ "obj-54", 1 ]
								}

							}
, 							{
								"patchline" : 								{
									"destination" : [ "obj-54", 0 ],
									"disabled" : 0,
									"hidden" : 0,
									"source" : [ "obj-55", 0 ]
								}

							}
, 							{
								"patchline" : 								{
									"destination" : [ "obj-51", 0 ],
									"disabled" : 0,
									"hidden" : 0,
									"source" : [ "obj-79", 0 ]
								}

							}
, 							{
								"patchline" : 								{
									"destination" : [ "obj-86", 0 ],
									"disabled" : 0,
									"hidden" : 0,
									"midpoints" : [ 162.0, 223.0, 73.0, 223.0 ],
									"source" : [ "obj-79", 1 ]
								}

							}
, 							{
								"patchline" : 								{
									"destination" : [ "obj-27", 0 ],
									"disabled" : 0,
									"hidden" : 0,
									"source" : [ "obj-86", 0 ]
								}

							}
, 							{
								"patchline" : 								{
									"destination" : [ "obj-43", 0 ],
									"disabled" : 0,
									"hidden" : 0,
									"source" : [ "obj-86", 0 ]
								}

							}
, 							{
								"patchline" : 								{
									"destination" : [ "obj-51", 0 ],
									"disabled" : 0,
									"hidden" : 0,
									"source" : [ "obj-90", 1 ]
								}

							}
, 							{
								"patchline" : 								{
									"destination" : [ "obj-86", 0 ],
									"disabled" : 0,
									"hidden" : 0,
									"midpoints" : [ 59.5, 211.0, 73.0, 211.0 ],
									"source" : [ "obj-90", 0 ]
								}

							}
 ]
					}
,
					"patching_rect" : [ 265.250031, 659.5, 82.0, 23.0 ],
					"saved_object_attributes" : 					{
						"default_fontface" : 0,
						"default_fontname" : "Helvetica Neue Light",
						"default_fontsize" : 14.0,
						"description" : "",
						"digest" : "",
						"fontface" : 0,
						"fontname" : "Helvetica Neue Light",
						"fontsize" : 14.0,
						"globalpatchername" : "",
						"tags" : ""
					}
,
					"text" : "p productID"
				}

			}
, 			{
				"box" : 				{
					"fontname" : "Arial",
					"fontsize" : 12.0,
					"frgb" : 0.0,
					"id" : "obj-111",
					"maxclass" : "comment",
					"numinlets" : 1,
					"numoutlets" : 0,
					"patching_rect" : [ 422.250061, 599.5, 27.0, 20.0 ],
					"text" : "out"
				}

			}
, 			{
				"box" : 				{
					"fontname" : "Arial",
					"fontsize" : 10.0,
					"id" : "obj-109",
					"items" : [ "AU DLS Synth 1", ",", "IAC IAC Bus 2", ",", "IAC IAC Bus 3", ",", "Network Session 1", ",", "Launchpad", ",", "from Max 1", ",", "from Max 2" ],
					"maxclass" : "umenu",
					"numinlets" : 1,
					"numoutlets" : 3,
					"outlettype" : [ "int", "", "" ],
					"parameter_enable" : 0,
					"patching_rect" : [ 322.250061, 599.5, 100.0, 18.0 ]
				}

			}
, 			{
				"box" : 				{
					"fontname" : "Arial",
					"fontsize" : 10.0,
					"id" : "obj-110",
					"maxclass" : "newobj",
					"numinlets" : 2,
					"numoutlets" : 1,
					"outlettype" : [ "" ],
					"patching_rect" : [ 322.250061, 574.5, 45.0, 18.0 ],
					"text" : "midiinfo"
				}

			}
, 			{
				"box" : 				{
					"fontname" : "Arial",
					"fontsize" : 10.0,
					"id" : "obj-17",
					"maxclass" : "newobj",
					"numinlets" : 1,
					"numoutlets" : 1,
					"outlettype" : [ "bang" ],
					"patching_rect" : [ 334.250061, 544.5, 52.0, 18.0 ],
					"text" : "loadbang"
				}

			}
, 			{
				"box" : 				{
					"fontname" : "Arial",
					"fontsize" : 10.0,
					"id" : "obj-1",
					"items" : [ "IAC IAC Bus 2", ",", "IAC IAC Bus 3", ",", "Network Session 1", ",", "Launchpad", ",", "to Max 1", ",", "to Max 2" ],
					"maxclass" : "umenu",
					"numinlets" : 1,
					"numoutlets" : 3,
					"outlettype" : [ "int", "", "" ],
					"parameter_enable" : 0,
					"patching_rect" : [ 190.250031, 599.5, 100.0, 18.0 ]
				}

			}
, 			{
				"box" : 				{
					"fontname" : "Arial",
					"fontsize" : 10.0,
					"id" : "obj-21",
					"maxclass" : "newobj",
					"numinlets" : 2,
					"numoutlets" : 1,
					"outlettype" : [ "" ],
					"patching_rect" : [ 190.250031, 574.5, 45.0, 18.0 ],
					"text" : "midiinfo"
				}

			}
, 			{
				"box" : 				{
					"fontname" : "Arial",
					"fontsize" : 12.0,
					"frgb" : 0.0,
					"id" : "obj-88",
					"maxclass" : "comment",
					"numinlets" : 1,
					"numoutlets" : 0,
					"patching_rect" : [ 288.750061, 599.5, 20.0, 20.0 ],
					"text" : "in"
				}

			}
, 			{
				"box" : 				{
					"bubble" : 1,
					"bubbleside" : 0,
					"fontface" : 2,
					"fontname" : "Helvetica Neue Light",
					"fontsize" : 14.0,
					"frgb" : 0.0,
					"id" : "obj-78",
					"linecount" : 2,
					"maxclass" : "comment",
					"numinlets" : 1,
					"numoutlets" : 0,
					"patching_rect" : [ 536.833374, 386.309082, 147.833374, 58.0 ],
					"text" : "UI representation of Guitar Wing controls"
				}

			}
, 			{
				"box" : 				{
					"fontname" : "Helvetica Neue Light",
					"fontsize" : 14.0,
					"frgb" : 0.0,
					"id" : "obj-76",
					"maxclass" : "comment",
					"numinlets" : 1,
					"numoutlets" : 0,
					"patching_rect" : [ 641.166687, 350.500031, 80.0, 23.0 ],
					"presentation" : 1,
					"presentation_rect" : [ 599.166687, 332.500031, 80.0, 23.0 ],
					"text" : "slider touch"
				}

			}
, 			{
				"box" : 				{
					"fontname" : "Helvetica Neue Light",
					"fontsize" : 14.0,
					"frgb" : 0.0,
					"id" : "obj-74",
					"maxclass" : "comment",
					"numinlets" : 1,
					"numoutlets" : 0,
					"patching_rect" : [ 641.166687, 315.309052, 49.0, 23.0 ],
					"presentation" : 1,
					"presentation_rect" : [ 599.166687, 297.309052, 49.0, 23.0 ],
					"text" : "sliders"
				}

			}
, 			{
				"box" : 				{
					"fontname" : "Helvetica Neue Light",
					"fontsize" : 14.0,
					"frgb" : 0.0,
					"id" : "obj-72",
					"maxclass" : "comment",
					"numinlets" : 1,
					"numoutlets" : 0,
					"patching_rect" : [ 636.166687, 247.690948, 103.0, 23.0 ],
					"presentation" : 1,
					"presentation_rect" : [ 594.166687, 229.690948, 103.0, 23.0 ],
					"text" : "motion sensor"
				}

			}
, 			{
				"box" : 				{
					"fontname" : "Helvetica Neue Light",
					"fontsize" : 14.0,
					"frgb" : 0.0,
					"id" : "obj-70",
					"maxclass" : "comment",
					"numinlets" : 1,
					"numoutlets" : 0,
					"patching_rect" : [ 683.166687, 151.0, 116.0, 23.0 ],
					"presentation" : 1,
					"presentation_rect" : [ 641.166687, 133.0, 116.0, 23.0 ],
					"text" : "pad afterpressure"
				}

			}
, 			{
				"box" : 				{
					"bubble" : 1,
					"bubbleside" : 0,
					"fontface" : 2,
					"fontname" : "Helvetica Neue Light",
					"fontsize" : 14.0,
					"frgb" : 0.0,
					"id" : "obj-69",
					"linecount" : 3,
					"maxclass" : "comment",
					"numinlets" : 1,
					"numoutlets" : 0,
					"patching_rect" : [ 228.666626, 297.500031, 213.833313, 74.0 ],
					"text" : "use pattrstorage outputmode to listen to UI objects and send out MIDI to control the LEDs"
				}

			}
, 			{
				"box" : 				{
					"fontname" : "Helvetica Neue Light",
					"fontsize" : 14.0,
					"id" : "obj-63",
					"maxclass" : "newobj",
					"numinlets" : 0,
					"numoutlets" : 1,
					"outlettype" : [ "" ],
					"patching_rect" : [ 253.833313, 19.072845, 68.0, 23.0 ],
					"text" : "r gw_port"
				}

			}
, 			{
				"box" : 				{
					"fontname" : "Helvetica Neue Light",
					"fontsize" : 14.0,
					"id" : "obj-61",
					"maxclass" : "newobj",
					"numinlets" : 0,
					"numoutlets" : 1,
					"outlettype" : [ "" ],
					"patching_rect" : [ 48.166626, 357.500031, 68.0, 23.0 ],
					"text" : "r gw_port"
				}

			}
, 			{
				"box" : 				{
					"fontname" : "Helvetica Neue Light",
					"fontsize" : 14.0,
					"id" : "obj-58",
					"maxclass" : "newobj",
					"numinlets" : 0,
					"numoutlets" : 1,
					"outlettype" : [ "" ],
					"patcher" : 					{
						"fileversion" : 1,
						"appversion" : 						{
							"major" : 6,
							"minor" : 1,
							"revision" : 7,
							"architecture" : "x86"
						}
,
						"rect" : [ 50.0, 94.0, 502.0, 415.0 ],
						"bglocked" : 0,
						"openinpresentation" : 0,
						"default_fontsize" : 14.0,
						"default_fontface" : 0,
						"default_fontname" : "Helvetica Neue Light",
						"gridonopen" : 0,
						"gridsize" : [ 15.0, 15.0 ],
						"gridsnaponopen" : 0,
						"statusbarvisible" : 2,
						"toolbarvisible" : 1,
						"boxanimatetime" : 200,
						"imprint" : 0,
						"enablehscroll" : 1,
						"enablevscroll" : 1,
						"devicewidth" : 0.0,
						"description" : "",
						"digest" : "",
						"tags" : "",
						"boxes" : [ 							{
								"box" : 								{
									"fontname" : "Helvetica Neue Light",
									"fontsize" : 14.0,
									"frgb" : 0.0,
									"id" : "obj-10",
									"linecount" : 2,
									"maxclass" : "comment",
									"numinlets" : 1,
									"numoutlets" : 0,
									"patching_rect" : [ 286.0, 172.0, 150.0, 40.0 ],
									"text" : "This won't work on windows XP :)"
								}

							}
, 							{
								"box" : 								{
									"fontname" : "Helvetica Neue Light",
									"fontsize" : 14.0,
									"frgb" : 0.0,
									"id" : "obj-8",
									"linecount" : 3,
									"maxclass" : "comment",
									"numinlets" : 1,
									"numoutlets" : 0,
									"patching_rect" : [ 182.0, 115.0, 150.0, 56.0 ],
									"text" : "finds the first port that has \"Guitar\" in the name"
								}

							}
, 							{
								"box" : 								{
									"fontname" : "Helvetica Neue Light",
									"fontsize" : 14.0,
									"id" : "obj-4",
									"maxclass" : "newobj",
									"numinlets" : 1,
									"numoutlets" : 1,
									"outlettype" : [ "" ],
									"patching_rect" : [ 34.5, 312.0, 108.0, 23.0 ],
									"text" : "prepend symbol"
								}

							}
, 							{
								"box" : 								{
									"fontname" : "Helvetica Neue Light",
									"fontsize" : 14.0,
									"id" : "obj-3",
									"maxclass" : "newobj",
									"numinlets" : 2,
									"numoutlets" : 2,
									"outlettype" : [ "", "" ],
									"patching_rect" : [ 34.5, 279.0, 43.0, 23.0 ],
									"text" : "zl reg"
								}

							}
, 							{
								"box" : 								{
									"fontname" : "Helvetica Neue Light",
									"fontsize" : 14.0,
									"id" : "obj-2",
									"maxclass" : "newobj",
									"numinlets" : 1,
									"numoutlets" : 1,
									"outlettype" : [ "int" ],
									"patching_rect" : [ 153.0, 250.0, 26.0, 23.0 ],
									"text" : "t 0"
								}

							}
, 							{
								"box" : 								{
									"fontname" : "Helvetica Neue Light",
									"fontsize" : 14.0,
									"id" : "obj-1",
									"maxclass" : "newobj",
									"numinlets" : 1,
									"numoutlets" : 3,
									"outlettype" : [ "bang", "bang", "int" ],
									"patching_rect" : [ 34.5, 84.0, 136.5, 23.0 ],
									"text" : "t b b 1"
								}

							}
, 							{
								"box" : 								{
									"fontname" : "Helvetica Neue Light",
									"fontsize" : 16.0,
									"id" : "obj-18",
									"maxclass" : "newobj",
									"numinlets" : 2,
									"numoutlets" : 1,
									"outlettype" : [ "" ],
									"patching_rect" : [ 153.0, 219.0, 41.0, 25.0 ],
									"text" : "gate"
								}

							}
, 							{
								"box" : 								{
									"fontname" : "Helvetica Neue Light",
									"fontsize" : 16.0,
									"id" : "obj-17",
									"maxclass" : "newobj",
									"numinlets" : 1,
									"numoutlets" : 5,
									"outlettype" : [ "", "", "", "", "" ],
									"patching_rect" : [ 166.0, 180.5, 116.0, 25.0 ],
									"text" : "regexp Guitar.+"
								}

							}
, 							{
								"box" : 								{
									"fontname" : "Helvetica Neue Light",
									"fontsize" : 16.0,
									"id" : "obj-63",
									"maxclass" : "newobj",
									"numinlets" : 1,
									"numoutlets" : 1,
									"outlettype" : [ "bang" ],
									"patching_rect" : [ 34.5, 49.0, 76.0, 25.0 ],
									"text" : "loadbang"
								}

							}
, 							{
								"box" : 								{
									"fontname" : "Helvetica Neue Light",
									"fontsize" : 16.0,
									"id" : "obj-61",
									"maxclass" : "newobj",
									"numinlets" : 2,
									"numoutlets" : 1,
									"outlettype" : [ "" ],
									"patching_rect" : [ 93.25, 122.5, 65.0, 25.0 ],
									"text" : "midiinfo"
								}

							}
, 							{
								"box" : 								{
									"comment" : "",
									"id" : "obj-21",
									"maxclass" : "outlet",
									"numinlets" : 1,
									"numoutlets" : 0,
									"patching_rect" : [ 93.25, 363.0, 25.0, 25.0 ]
								}

							}
 ],
						"lines" : [ 							{
								"patchline" : 								{
									"destination" : [ "obj-18", 0 ],
									"disabled" : 0,
									"hidden" : 0,
									"source" : [ "obj-1", 2 ]
								}

							}
, 							{
								"patchline" : 								{
									"destination" : [ "obj-3", 0 ],
									"disabled" : 0,
									"hidden" : 0,
									"source" : [ "obj-1", 0 ]
								}

							}
, 							{
								"patchline" : 								{
									"destination" : [ "obj-61", 0 ],
									"disabled" : 0,
									"hidden" : 0,
									"source" : [ "obj-1", 1 ]
								}

							}
, 							{
								"patchline" : 								{
									"destination" : [ "obj-18", 1 ],
									"disabled" : 0,
									"hidden" : 0,
									"source" : [ "obj-17", 2 ]
								}

							}
, 							{
								"patchline" : 								{
									"destination" : [ "obj-2", 0 ],
									"disabled" : 0,
									"hidden" : 0,
									"source" : [ "obj-18", 0 ]
								}

							}
, 							{
								"patchline" : 								{
									"destination" : [ "obj-3", 1 ],
									"disabled" : 0,
									"hidden" : 0,
									"source" : [ "obj-18", 0 ]
								}

							}
, 							{
								"patchline" : 								{
									"destination" : [ "obj-18", 0 ],
									"disabled" : 0,
									"hidden" : 0,
									"midpoints" : [ 162.5, 282.0, 143.5, 282.0, 143.5, 209.0, 162.5, 209.0 ],
									"source" : [ "obj-2", 0 ]
								}

							}
, 							{
								"patchline" : 								{
									"destination" : [ "obj-4", 0 ],
									"disabled" : 0,
									"hidden" : 0,
									"source" : [ "obj-3", 0 ]
								}

							}
, 							{
								"patchline" : 								{
									"destination" : [ "obj-21", 0 ],
									"disabled" : 0,
									"hidden" : 0,
									"source" : [ "obj-4", 0 ]
								}

							}
, 							{
								"patchline" : 								{
									"destination" : [ "obj-17", 0 ],
									"disabled" : 0,
									"hidden" : 0,
									"source" : [ "obj-61", 0 ]
								}

							}
, 							{
								"patchline" : 								{
									"destination" : [ "obj-21", 0 ],
									"disabled" : 0,
									"hidden" : 0,
									"source" : [ "obj-61", 0 ]
								}

							}
, 							{
								"patchline" : 								{
									"destination" : [ "obj-1", 0 ],
									"disabled" : 0,
									"hidden" : 0,
									"source" : [ "obj-63", 0 ]
								}

							}
 ]
					}
,
					"patching_rect" : [ 35.5, 40.381897, 111.0, 23.0 ],
					"saved_object_attributes" : 					{
						"default_fontface" : 0,
						"default_fontname" : "Helvetica Neue Light",
						"default_fontsize" : 14.0,
						"description" : "",
						"digest" : "",
						"fontface" : 0,
						"fontname" : "Helvetica Neue Light",
						"fontsize" : 14.0,
						"globalpatchername" : "",
						"tags" : ""
					}
,
					"text" : "p findGuitarWing"
				}

			}
, 			{
				"box" : 				{
					"fontname" : "Helvetica Neue Light",
					"fontsize" : 14.0,
					"frgb" : 0.0,
					"id" : "obj-59",
					"maxclass" : "comment",
					"numinlets" : 1,
					"numoutlets" : 0,
					"patching_rect" : [ 35.5, 16.190948, 74.0, 23.0 ],
					"text" : "select port"
				}

			}
, 			{
				"box" : 				{
					"fontname" : "Helvetica Neue Light",
					"fontsize" : 14.0,
					"id" : "obj-60",
					"maxclass" : "newobj",
					"numinlets" : 1,
					"numoutlets" : 0,
					"patching_rect" : [ 35.5, 110.381897, 71.0, 23.0 ],
					"text" : "s gw_port"
				}

			}
, 			{
				"box" : 				{
					"fontname" : "Helvetica Neue Light",
					"fontsize" : 14.0,
					"id" : "obj-65",
					"items" : [ "AU DLS Synth 1", ",", "IAC IAC Bus 2", ",", "IAC IAC Bus 3", ",", "Network Session 1", ",", "Launchpad", ",", "from Max 1", ",", "from Max 2" ],
					"maxclass" : "umenu",
					"numinlets" : 1,
					"numoutlets" : 3,
					"outlettype" : [ "int", "", "" ],
					"parameter_enable" : 0,
					"patching_rect" : [ 35.5, 73.881897, 120.0, 23.0 ]
				}

			}
, 			{
				"box" : 				{
					"fontname" : "Helvetica Neue Light",
					"fontsize" : 14.0,
					"id" : "obj-57",
					"maxclass" : "newobj",
					"numinlets" : 1,
					"numoutlets" : 0,
					"patching_rect" : [ 91.666626, 395.500031, 55.0, 23.0 ],
					"text" : "midiout"
				}

			}
, 			{
				"box" : 				{
					"fontname" : "Helvetica Neue Light",
					"fontsize" : 14.0,
					"id" : "obj-13",
					"maxclass" : "message",
					"numinlets" : 2,
					"numoutlets" : 1,
					"outlettype" : [ "" ],
					"patching_rect" : [ 28.666626, 261.000031, 59.0, 21.0 ],
					"text" : "getstate"
				}

			}
, 			{
				"box" : 				{
					"fontname" : "Helvetica Neue Light",
					"fontsize" : 14.0,
					"frozen_object_attributes" : 					{
						"autorestore" : 0
					}
,
					"id" : "obj-7",
					"maxclass" : "newobj",
					"numinlets" : 1,
					"numoutlets" : 4,
					"outlettype" : [ "", "", "", "" ],
					"patching_rect" : [ 28.666626, 292.500031, 82.0, 23.0 ],
					"restore" : 					{
						"accel/1" : [ 0.0 ],
						"accel/2" : [ 0.0 ],
						"accel/3" : [ 0.0 ],
						"accelbtn/1" : [ 0.0 ],
						"arrow/1" : [ 0.0 ],
						"arrow/2" : [ 0.0 ],
						"button/1" : [ 0.0 ],
						"button/2" : [ 0.0 ],
						"button/3" : [ 0.0 ],
						"button/4" : [ 0.0 ],
						"pad/1" : [ 0.0 ],
						"pad/2" : [ 0.0 ],
						"pad/3" : [ 0.0 ],
						"pad/4" : [ 0.0 ],
						"padcc/1" : [ 0.0 ],
						"padcc/2" : [ 0.0 ],
						"padcc/3" : [ 0.0 ],
						"padcc/4" : [ 0.0 ],
						"sidebtn/1" : [ 0.0 ],
						"sidebtn/2" : [ 0.0 ],
						"sidebtn/3" : [ 0.0 ],
						"sidebtn/4" : [ 0.0 ],
						"slider/1" : [ 0.0 ],
						"slider/2" : [ 0.0 ],
						"slider/3" : [ 0.0 ],
						"slidertouch/1" : [ 0.0 ],
						"slidertouch/2" : [ 0.0 ],
						"slidertouch/3" : [ 0.0 ]
					}
,
					"text" : "autopattr UI",
					"varname" : "UI"
				}

			}
, 			{
				"box" : 				{
					"fontname" : "Helvetica Neue Light",
					"fontsize" : 14.0,
					"id" : "obj-81",
					"maxclass" : "newobj",
					"numinlets" : 0,
					"numoutlets" : 1,
					"outlettype" : [ "" ],
					"patcher" : 					{
						"fileversion" : 1,
						"appversion" : 						{
							"major" : 6,
							"minor" : 1,
							"revision" : 7,
							"architecture" : "x86"
						}
,
						"rect" : [ 25.0, 69.0, 640.0, 480.0 ],
						"bglocked" : 0,
						"openinpresentation" : 0,
						"default_fontsize" : 14.0,
						"default_fontface" : 0,
						"default_fontname" : "Helvetica Neue Light",
						"gridonopen" : 0,
						"gridsize" : [ 15.0, 15.0 ],
						"gridsnaponopen" : 0,
						"statusbarvisible" : 2,
						"toolbarvisible" : 1,
						"boxanimatetime" : 200,
						"imprint" : 0,
						"enablehscroll" : 1,
						"enablevscroll" : 1,
						"devicewidth" : 0.0,
						"description" : "",
						"digest" : "",
						"tags" : "",
						"boxes" : [ 							{
								"box" : 								{
									"id" : "obj-1",
									"maxclass" : "button",
									"numinlets" : 1,
									"numoutlets" : 1,
									"outlettype" : [ "bang" ],
									"patching_rect" : [ 57.0, 100.0, 20.0, 20.0 ]
								}

							}
, 							{
								"box" : 								{
									"fontname" : "Helvetica Neue Light",
									"fontsize" : 12.0,
									"id" : "obj-3",
									"maxclass" : "newobj",
									"numinlets" : 2,
									"numoutlets" : 3,
									"outlettype" : [ "bang", "bang", "int" ],
									"patching_rect" : [ 50.0, 127.0, 46.0, 21.0 ],
									"text" : "uzi 4"
								}

							}
, 							{
								"box" : 								{
									"fontname" : "Helvetica Neue Light",
									"fontsize" : 12.0,
									"id" : "obj-5",
									"maxclass" : "newobj",
									"numinlets" : 1,
									"numoutlets" : 1,
									"outlettype" : [ "" ],
									"patching_rect" : [ 50.0, 152.5, 90.0, 21.0 ],
									"text" : "sprintf accel/%i"
								}

							}
, 							{
								"box" : 								{
									"fontname" : "Helvetica Neue Light",
									"fontsize" : 12.0,
									"id" : "obj-86",
									"maxclass" : "message",
									"numinlets" : 2,
									"numoutlets" : 1,
									"outlettype" : [ "" ],
									"patching_rect" : [ 50.0, 188.5, 387.0, 19.0 ],
									"text" : "script newobject live.dial @varname $1, script sendbox $1 presentation 1"
								}

							}
, 							{
								"box" : 								{
									"fontname" : "Helvetica Neue Light",
									"fontsize" : 14.0,
									"id" : "obj-36",
									"maxclass" : "message",
									"numinlets" : 2,
									"numoutlets" : 1,
									"outlettype" : [ "" ],
									"patching_rect" : [ 182.900024, 132.5, 32.5, 21.0 ],
									"text" : "4"
								}

							}
, 							{
								"box" : 								{
									"fontname" : "Helvetica Neue Light",
									"fontsize" : 12.0,
									"id" : "obj-152",
									"maxclass" : "newobj",
									"numinlets" : 1,
									"numoutlets" : 1,
									"outlettype" : [ "" ],
									"patching_rect" : [ 421.5, 214.5, 82.0, 21.0 ],
									"text" : "sprintf pad/%i"
								}

							}
, 							{
								"box" : 								{
									"id" : "obj-67",
									"maxclass" : "button",
									"numinlets" : 1,
									"numoutlets" : 1,
									"outlettype" : [ "bang" ],
									"patching_rect" : [ 154.400024, 133.0, 20.0, 20.0 ]
								}

							}
, 							{
								"box" : 								{
									"fontname" : "Helvetica Neue Light",
									"fontsize" : 12.0,
									"id" : "obj-68",
									"maxclass" : "newobj",
									"numinlets" : 2,
									"numoutlets" : 3,
									"outlettype" : [ "bang", "bang", "int" ],
									"patching_rect" : [ 147.400024, 159.0, 46.0, 21.0 ],
									"text" : "uzi 4"
								}

							}
, 							{
								"box" : 								{
									"fontname" : "Helvetica Neue Light",
									"fontsize" : 12.0,
									"id" : "obj-69",
									"maxclass" : "newobj",
									"numinlets" : 1,
									"numoutlets" : 1,
									"outlettype" : [ "" ],
									"patching_rect" : [ 120.400024, 214.5, 100.0, 21.0 ],
									"text" : "sprintf sidebtn/%i"
								}

							}
, 							{
								"box" : 								{
									"fontname" : "Helvetica Neue Light",
									"fontsize" : 12.0,
									"id" : "obj-49",
									"maxclass" : "newobj",
									"numinlets" : 1,
									"numoutlets" : 1,
									"outlettype" : [ "" ],
									"patching_rect" : [ 321.400024, 214.5, 92.0, 21.0 ],
									"text" : "sprintf arrow/%i"
								}

							}
, 							{
								"box" : 								{
									"fontname" : "Helvetica Neue Light",
									"fontsize" : 12.0,
									"id" : "obj-51",
									"maxclass" : "newobj",
									"numinlets" : 1,
									"numoutlets" : 1,
									"outlettype" : [ "" ],
									"patching_rect" : [ 220.400024, 214.5, 96.0, 21.0 ],
									"text" : "sprintf button/%i"
								}

							}
, 							{
								"box" : 								{
									"fontname" : "Helvetica Neue Light",
									"fontsize" : 12.0,
									"id" : "obj-48",
									"maxclass" : "message",
									"numinlets" : 2,
									"numoutlets" : 1,
									"outlettype" : [ "" ],
									"patching_rect" : [ 120.400024, 242.0, 389.0, 19.0 ],
									"text" : "script newobject live.text @varname $1, script sendbox $1 presentation 1"
								}

							}
, 							{
								"box" : 								{
									"comment" : "",
									"id" : "obj-80",
									"maxclass" : "outlet",
									"numinlets" : 1,
									"numoutlets" : 0,
									"patching_rect" : [ 80.200012, 321.0, 25.0, 25.0 ]
								}

							}
 ],
						"lines" : [ 							{
								"patchline" : 								{
									"destination" : [ "obj-3", 0 ],
									"disabled" : 0,
									"hidden" : 0,
									"source" : [ "obj-1", 0 ]
								}

							}
, 							{
								"patchline" : 								{
									"destination" : [ "obj-48", 0 ],
									"disabled" : 0,
									"hidden" : 0,
									"source" : [ "obj-152", 0 ]
								}

							}
, 							{
								"patchline" : 								{
									"destination" : [ "obj-5", 0 ],
									"disabled" : 0,
									"hidden" : 0,
									"source" : [ "obj-3", 2 ]
								}

							}
, 							{
								"patchline" : 								{
									"destination" : [ "obj-68", 1 ],
									"disabled" : 0,
									"hidden" : 0,
									"source" : [ "obj-36", 0 ]
								}

							}
, 							{
								"patchline" : 								{
									"destination" : [ "obj-80", 0 ],
									"disabled" : 0,
									"hidden" : 0,
									"source" : [ "obj-48", 0 ]
								}

							}
, 							{
								"patchline" : 								{
									"destination" : [ "obj-48", 0 ],
									"disabled" : 0,
									"hidden" : 0,
									"source" : [ "obj-49", 0 ]
								}

							}
, 							{
								"patchline" : 								{
									"destination" : [ "obj-86", 0 ],
									"disabled" : 0,
									"hidden" : 0,
									"source" : [ "obj-5", 0 ]
								}

							}
, 							{
								"patchline" : 								{
									"destination" : [ "obj-48", 0 ],
									"disabled" : 0,
									"hidden" : 0,
									"source" : [ "obj-51", 0 ]
								}

							}
, 							{
								"patchline" : 								{
									"destination" : [ "obj-68", 0 ],
									"disabled" : 0,
									"hidden" : 0,
									"source" : [ "obj-67", 0 ]
								}

							}
, 							{
								"patchline" : 								{
									"destination" : [ "obj-152", 0 ],
									"disabled" : 0,
									"hidden" : 0,
									"source" : [ "obj-68", 2 ]
								}

							}
, 							{
								"patchline" : 								{
									"destination" : [ "obj-48", 0 ],
									"disabled" : 0,
									"hidden" : 0,
									"source" : [ "obj-69", 0 ]
								}

							}
, 							{
								"patchline" : 								{
									"destination" : [ "obj-80", 0 ],
									"disabled" : 0,
									"hidden" : 0,
									"source" : [ "obj-86", 0 ]
								}

							}
 ]
					}
,
					"patching_rect" : [ 35.5, 149.190948, 68.0, 23.0 ],
					"saved_object_attributes" : 					{
						"default_fontface" : 0,
						"default_fontname" : "Helvetica Neue Light",
						"default_fontsize" : 14.0,
						"description" : "",
						"digest" : "",
						"fontface" : 0,
						"fontname" : "Helvetica Neue Light",
						"fontsize" : 14.0,
						"globalpatchername" : "",
						"tags" : ""
					}
,
					"text" : "p makeUI"
				}

			}
, 			{
				"box" : 				{
					"fontname" : "Helvetica Neue Light",
					"fontsize" : 14.0,
					"frgb" : 0.0,
					"id" : "obj-55",
					"maxclass" : "comment",
					"numinlets" : 1,
					"numoutlets" : 0,
					"patching_rect" : [ 683.166687, 114.690948, 90.0, 23.0 ],
					"presentation" : 1,
					"presentation_rect" : [ 641.166687, 96.690948, 90.0, 23.0 ],
					"text" : "accel. enable"
				}

			}
, 			{
				"box" : 				{
					"id" : "obj-54",
					"maxclass" : "live.text",
					"mode" : 0,
					"numinlets" : 1,
					"numoutlets" : 2,
					"outlettype" : [ "", "" ],
					"parameter_enable" : 1,
					"patching_rect" : [ 636.166687, 114.690948, 40.0, 20.0 ],
					"presentation" : 1,
					"presentation_rect" : [ 594.166687, 96.690948, 40.0, 20.0 ],
					"saved_attribute_attributes" : 					{
						"valueof" : 						{
							"parameter_longname" : "pad/4[1]",
							"parameter_shortname" : "pad/4",
							"parameter_type" : 2,
							"parameter_mmax" : 1.0,
							"parameter_enum" : [ "val1", "val2" ]
						}

					}
,
					"varname" : "accelbtn/1"
				}

			}
, 			{
				"box" : 				{
					"fontname" : "Helvetica Neue Light",
					"fontsize" : 14.0,
					"frgb" : 0.0,
					"id" : "obj-53",
					"maxclass" : "comment",
					"numinlets" : 1,
					"numoutlets" : 0,
					"patching_rect" : [ 683.166687, 197.190948, 44.0, 23.0 ],
					"presentation" : 1,
					"presentation_rect" : [ 641.166687, 179.190948, 44.0, 23.0 ],
					"text" : "pad"
				}

			}
, 			{
				"box" : 				{
					"fontname" : "Helvetica Neue Light",
					"fontsize" : 14.0,
					"frgb" : 0.0,
					"id" : "obj-41",
					"maxclass" : "comment",
					"numinlets" : 1,
					"numoutlets" : 0,
					"patching_rect" : [ 683.166687, 84.690948, 44.0, 23.0 ],
					"presentation" : 1,
					"presentation_rect" : [ 641.166687, 66.690948, 44.0, 23.0 ],
					"text" : "arrow"
				}

			}
, 			{
				"box" : 				{
					"fontname" : "Helvetica Neue Light",
					"fontsize" : 14.0,
					"frgb" : 0.0,
					"id" : "obj-34",
					"maxclass" : "comment",
					"numinlets" : 1,
					"numoutlets" : 0,
					"patching_rect" : [ 683.166687, 54.690948, 50.0, 23.0 ],
					"presentation" : 1,
					"presentation_rect" : [ 641.166687, 36.690948, 50.0, 23.0 ],
					"text" : "button"
				}

			}
, 			{
				"box" : 				{
					"fontname" : "Helvetica Neue Light",
					"fontsize" : 14.0,
					"frgb" : 0.0,
					"id" : "obj-32",
					"maxclass" : "comment",
					"numinlets" : 1,
					"numoutlets" : 0,
					"patching_rect" : [ 683.166687, 28.5, 78.0, 23.0 ],
					"presentation" : 1,
					"presentation_rect" : [ 641.166687, 10.5, 78.0, 23.0 ],
					"text" : "side button"
				}

			}
, 			{
				"box" : 				{
					"fontname" : "Helvetica Neue Light",
					"fontsize" : 14.0,
					"id" : "obj-14",
					"maxclass" : "newobj",
					"numinlets" : 1,
					"numoutlets" : 2,
					"outlettype" : [ "", "" ],
					"patching_rect" : [ 35.5, 180.690948, 77.0, 23.0 ],
					"save" : [ "#N", "thispatcher", ";", "#Q", "end", ";" ],
					"text" : "thispatcher"
				}

			}
, 			{
				"box" : 				{
					"id" : "obj-12",
					"maxclass" : "live.text",
					"mode" : 0,
					"numinlets" : 1,
					"numoutlets" : 2,
					"outlettype" : [ "", "" ],
					"parameter_enable" : 1,
					"patching_rect" : [ 597.166687, 350.500031, 40.0, 20.0 ],
					"presentation" : 1,
					"presentation_rect" : [ 555.166687, 332.500031, 40.0, 20.0 ],
					"saved_attribute_attributes" : 					{
						"valueof" : 						{
							"parameter_longname" : "Slider Touch 3",
							"parameter_shortname" : "slidertouch3",
							"parameter_type" : 2,
							"parameter_mmax" : 1.0,
							"parameter_enum" : [ "off", "on" ]
						}

					}
,
					"varname" : "slidertouch/3"
				}

			}
, 			{
				"box" : 				{
					"id" : "obj-11",
					"maxclass" : "live.text",
					"mode" : 0,
					"numinlets" : 1,
					"numoutlets" : 2,
					"outlettype" : [ "", "" ],
					"parameter_enable" : 1,
					"patching_rect" : [ 542.166687, 350.500031, 40.0, 20.0 ],
					"presentation" : 1,
					"presentation_rect" : [ 500.166687, 332.500031, 40.0, 20.0 ],
					"saved_attribute_attributes" : 					{
						"valueof" : 						{
							"parameter_longname" : "Slider Touch 2",
							"parameter_shortname" : "slidertouch2",
							"parameter_type" : 2,
							"parameter_mmax" : 1.0,
							"parameter_enum" : [ "off", "on" ]
						}

					}
,
					"varname" : "slidertouch/2"
				}

			}
, 			{
				"box" : 				{
					"id" : "obj-10",
					"maxclass" : "live.text",
					"mode" : 0,
					"numinlets" : 1,
					"numoutlets" : 2,
					"outlettype" : [ "", "" ],
					"parameter_enable" : 1,
					"patching_rect" : [ 487.166687, 350.500031, 40.0, 20.0 ],
					"presentation" : 1,
					"presentation_rect" : [ 445.166687, 332.500031, 40.0, 20.0 ],
					"saved_attribute_attributes" : 					{
						"valueof" : 						{
							"parameter_longname" : "Slider Touch 1",
							"parameter_shortname" : "slidertouch1",
							"parameter_type" : 2,
							"parameter_mmax" : 1.0,
							"parameter_enum" : [ "off", "on" ]
						}

					}
,
					"varname" : "slidertouch/1"
				}

			}
, 			{
				"box" : 				{
					"bubble" : 1,
					"bubbleside" : 0,
					"fontface" : 2,
					"fontname" : "Helvetica Neue Light",
					"fontsize" : 14.0,
					"frgb" : 0.0,
					"id" : "obj-234",
					"linecount" : 3,
					"maxclass" : "comment",
					"numinlets" : 1,
					"numoutlets" : 0,
					"patching_rect" : [ 156.333313, 110.381897, 172.0, 74.0 ],
					"text" : "Wire-free programming! MIDI is turned into names that refer to UI objects"
				}

			}
, 			{
				"box" : 				{
					"id" : "obj-228",
					"maxclass" : "live.dial",
					"numinlets" : 1,
					"numoutlets" : 2,
					"outlettype" : [ "", "float" ],
					"parameter_enable" : 1,
					"patching_rect" : [ 597.166687, 297.500031, 44.0, 47.0 ],
					"presentation" : 1,
					"presentation_rect" : [ 555.166687, 279.500031, 44.0, 47.0 ],
					"saved_attribute_attributes" : 					{
						"valueof" : 						{
							"parameter_longname" : "Slider 3",
							"parameter_shortname" : "slider3",
							"parameter_type" : 0,
							"parameter_unitstyle" : 0
						}

					}
,
					"varname" : "slider/3"
				}

			}
, 			{
				"box" : 				{
					"id" : "obj-227",
					"maxclass" : "live.dial",
					"numinlets" : 1,
					"numoutlets" : 2,
					"outlettype" : [ "", "float" ],
					"parameter_enable" : 1,
					"patching_rect" : [ 542.166687, 297.500031, 44.0, 47.0 ],
					"presentation" : 1,
					"presentation_rect" : [ 500.166687, 279.500031, 44.0, 47.0 ],
					"saved_attribute_attributes" : 					{
						"valueof" : 						{
							"parameter_longname" : "Slider 2",
							"parameter_shortname" : "slider2",
							"parameter_type" : 0,
							"parameter_unitstyle" : 0
						}

					}
,
					"varname" : "slider/2"
				}

			}
, 			{
				"box" : 				{
					"fontname" : "Helvetica Neue Light",
					"fontsize" : 14.0,
					"id" : "obj-225",
					"maxclass" : "newobj",
					"numinlets" : 1,
					"numoutlets" : 2,
					"outlettype" : [ "", "" ],
					"patching_rect" : [ 197.333313, 88.881897, 78.0, 23.0 ],
					"save" : [ "#N", "thispatcher", ";", "#Q", "end", ";" ],
					"text" : "thispatcher"
				}

			}
, 			{
				"box" : 				{
					"id" : "obj-222",
					"maxclass" : "live.dial",
					"numinlets" : 1,
					"numoutlets" : 2,
					"outlettype" : [ "", "float" ],
					"parameter_enable" : 1,
					"patching_rect" : [ 487.166687, 297.500031, 44.0, 47.0 ],
					"presentation" : 1,
					"presentation_rect" : [ 445.166687, 279.500031, 44.0, 47.0 ],
					"saved_attribute_attributes" : 					{
						"valueof" : 						{
							"parameter_longname" : "Slider 1",
							"parameter_shortname" : "slider1",
							"parameter_type" : 0,
							"parameter_unitstyle" : 0
						}

					}
,
					"varname" : "slider/1"
				}

			}
, 			{
				"box" : 				{
					"fontname" : "Helvetica Neue Light",
					"fontsize" : 14.0,
					"id" : "obj-138",
					"maxclass" : "newobj",
					"numinlets" : 1,
					"numoutlets" : 1,
					"outlettype" : [ "int" ],
					"patching_rect" : [ 197.833313, 19.072845, 46.0, 23.0 ],
					"text" : "midiin"
				}

			}
, 			{
				"box" : 				{
					"id" : "obj-16",
					"maxclass" : "live.text",
					"mode" : 0,
					"numinlets" : 1,
					"numoutlets" : 2,
					"outlettype" : [ "", "" ],
					"parameter_enable" : 1,
					"patching_rect" : [ 487.166687, 28.5, 40.0, 20.0 ],
					"presentation" : 1,
					"presentation_rect" : [ 445.166687, 10.5, 40.0, 20.0 ],
					"saved_attribute_attributes" : 					{
						"valueof" : 						{
							"parameter_longname" : "sidebtn/1",
							"parameter_shortname" : "sidebtn/1",
							"parameter_type" : 2,
							"parameter_mmax" : 1.0,
							"parameter_enum" : [ "val1", "val2" ]
						}

					}
,
					"varname" : "sidebtn/1"
				}

			}
, 			{
				"box" : 				{
					"id" : "obj-18",
					"maxclass" : "live.text",
					"mode" : 0,
					"numinlets" : 1,
					"numoutlets" : 2,
					"outlettype" : [ "", "" ],
					"parameter_enable" : 1,
					"patching_rect" : [ 536.833374, 28.5, 40.0, 20.0 ],
					"presentation" : 1,
					"presentation_rect" : [ 494.833374, 10.5, 40.0, 20.0 ],
					"saved_attribute_attributes" : 					{
						"valueof" : 						{
							"parameter_longname" : "sidebtn/2",
							"parameter_shortname" : "sidebtn/2",
							"parameter_type" : 2,
							"parameter_mmax" : 1.0,
							"parameter_enum" : [ "val1", "val2" ]
						}

					}
,
					"varname" : "sidebtn/2"
				}

			}
, 			{
				"box" : 				{
					"id" : "obj-20",
					"maxclass" : "live.text",
					"mode" : 0,
					"numinlets" : 1,
					"numoutlets" : 2,
					"outlettype" : [ "", "" ],
					"parameter_enable" : 1,
					"patching_rect" : [ 586.5, 28.5, 40.0, 20.0 ],
					"presentation" : 1,
					"presentation_rect" : [ 544.5, 10.5, 40.0, 20.0 ],
					"saved_attribute_attributes" : 					{
						"valueof" : 						{
							"parameter_longname" : "sidebtn/3",
							"parameter_shortname" : "sidebtn/3",
							"parameter_type" : 2,
							"parameter_mmax" : 1.0,
							"parameter_enum" : [ "val1", "val2" ]
						}

					}
,
					"varname" : "sidebtn/3"
				}

			}
, 			{
				"box" : 				{
					"id" : "obj-22",
					"maxclass" : "live.text",
					"mode" : 0,
					"numinlets" : 1,
					"numoutlets" : 2,
					"outlettype" : [ "", "" ],
					"parameter_enable" : 1,
					"patching_rect" : [ 636.166687, 28.5, 40.0, 20.0 ],
					"presentation" : 1,
					"presentation_rect" : [ 594.166687, 10.5, 40.0, 20.0 ],
					"saved_attribute_attributes" : 					{
						"valueof" : 						{
							"parameter_longname" : "sidebtn/4",
							"parameter_shortname" : "sidebtn/4",
							"parameter_type" : 2,
							"parameter_mmax" : 1.0,
							"parameter_enum" : [ "val1", "val2" ]
						}

					}
,
					"varname" : "sidebtn/4"
				}

			}
, 			{
				"box" : 				{
					"id" : "obj-24",
					"maxclass" : "live.text",
					"mode" : 0,
					"numinlets" : 1,
					"numoutlets" : 2,
					"outlettype" : [ "", "" ],
					"parameter_enable" : 1,
					"patching_rect" : [ 487.166687, 54.690948, 40.0, 20.0 ],
					"presentation" : 1,
					"presentation_rect" : [ 445.166687, 36.690948, 40.0, 20.0 ],
					"saved_attribute_attributes" : 					{
						"valueof" : 						{
							"parameter_longname" : "button/1",
							"parameter_shortname" : "button/1",
							"parameter_type" : 2,
							"parameter_mmax" : 1.0,
							"parameter_enum" : [ "val1", "val2" ]
						}

					}
,
					"varname" : "button/1"
				}

			}
, 			{
				"box" : 				{
					"id" : "obj-26",
					"maxclass" : "live.text",
					"mode" : 0,
					"numinlets" : 1,
					"numoutlets" : 2,
					"outlettype" : [ "", "" ],
					"parameter_enable" : 1,
					"patching_rect" : [ 536.833374, 54.690948, 40.0, 20.0 ],
					"presentation" : 1,
					"presentation_rect" : [ 494.833374, 36.690948, 40.0, 20.0 ],
					"saved_attribute_attributes" : 					{
						"valueof" : 						{
							"parameter_longname" : "button/2",
							"parameter_shortname" : "button/2",
							"parameter_type" : 2,
							"parameter_mmax" : 1.0,
							"parameter_enum" : [ "val1", "val2" ]
						}

					}
,
					"varname" : "button/2"
				}

			}
, 			{
				"box" : 				{
					"id" : "obj-28",
					"maxclass" : "live.text",
					"mode" : 0,
					"numinlets" : 1,
					"numoutlets" : 2,
					"outlettype" : [ "", "" ],
					"parameter_enable" : 1,
					"patching_rect" : [ 586.000061, 54.690948, 40.0, 20.0 ],
					"presentation" : 1,
					"presentation_rect" : [ 544.000061, 36.690948, 40.0, 20.0 ],
					"saved_attribute_attributes" : 					{
						"valueof" : 						{
							"parameter_longname" : "button/3",
							"parameter_shortname" : "button/3",
							"parameter_type" : 2,
							"parameter_mmax" : 1.0,
							"parameter_enum" : [ "val1", "val2" ]
						}

					}
,
					"varname" : "button/3"
				}

			}
, 			{
				"box" : 				{
					"id" : "obj-30",
					"maxclass" : "live.text",
					"mode" : 0,
					"numinlets" : 1,
					"numoutlets" : 2,
					"outlettype" : [ "", "" ],
					"parameter_enable" : 1,
					"patching_rect" : [ 636.166687, 54.690948, 40.0, 20.0 ],
					"presentation" : 1,
					"presentation_rect" : [ 594.166687, 36.690948, 40.0, 20.0 ],
					"saved_attribute_attributes" : 					{
						"valueof" : 						{
							"parameter_longname" : "button/4",
							"parameter_shortname" : "button/4",
							"parameter_type" : 2,
							"parameter_mmax" : 1.0,
							"parameter_enum" : [ "val1", "val2" ]
						}

					}
,
					"varname" : "button/4"
				}

			}
, 			{
				"box" : 				{
					"id" : "obj-38",
					"maxclass" : "live.text",
					"mode" : 0,
					"numinlets" : 1,
					"numoutlets" : 2,
					"outlettype" : [ "", "" ],
					"parameter_enable" : 1,
					"patching_rect" : [ 587.000061, 84.690948, 40.0, 20.0 ],
					"presentation" : 1,
					"presentation_rect" : [ 545.000061, 66.690948, 40.0, 20.0 ],
					"saved_attribute_attributes" : 					{
						"valueof" : 						{
							"parameter_longname" : "arrow/1",
							"parameter_shortname" : "arrow/1",
							"parameter_type" : 2,
							"parameter_mmax" : 1.0,
							"parameter_enum" : [ "val1", "val2" ]
						}

					}
,
					"varname" : "arrow/1"
				}

			}
, 			{
				"box" : 				{
					"id" : "obj-40",
					"maxclass" : "live.text",
					"mode" : 0,
					"numinlets" : 1,
					"numoutlets" : 2,
					"outlettype" : [ "", "" ],
					"parameter_enable" : 1,
					"patching_rect" : [ 636.166687, 84.690948, 40.0, 20.0 ],
					"presentation" : 1,
					"presentation_rect" : [ 594.166687, 66.690948, 40.0, 20.0 ],
					"saved_attribute_attributes" : 					{
						"valueof" : 						{
							"parameter_longname" : "arrow/2",
							"parameter_shortname" : "arrow/2",
							"parameter_type" : 2,
							"parameter_mmax" : 1.0,
							"parameter_enum" : [ "val1", "val2" ]
						}

					}
,
					"varname" : "arrow/2"
				}

			}
, 			{
				"box" : 				{
					"id" : "obj-43",
					"maxclass" : "live.text",
					"mode" : 0,
					"numinlets" : 1,
					"numoutlets" : 2,
					"outlettype" : [ "", "" ],
					"parameter_enable" : 1,
					"patching_rect" : [ 487.166687, 198.690948, 40.0, 20.0 ],
					"presentation" : 1,
					"presentation_rect" : [ 445.166687, 180.690948, 40.0, 20.0 ],
					"saved_attribute_attributes" : 					{
						"valueof" : 						{
							"parameter_longname" : "pad/1",
							"parameter_shortname" : "pad/1",
							"parameter_type" : 2,
							"parameter_mmax" : 1.0,
							"parameter_enum" : [ "val1", "val2" ]
						}

					}
,
					"varname" : "pad/1"
				}

			}
, 			{
				"box" : 				{
					"id" : "obj-45",
					"maxclass" : "live.text",
					"mode" : 0,
					"numinlets" : 1,
					"numoutlets" : 2,
					"outlettype" : [ "", "" ],
					"parameter_enable" : 1,
					"patching_rect" : [ 536.833374, 198.690948, 40.0, 20.0 ],
					"presentation" : 1,
					"presentation_rect" : [ 494.833374, 180.690948, 40.0, 20.0 ],
					"saved_attribute_attributes" : 					{
						"valueof" : 						{
							"parameter_longname" : "pad/2",
							"parameter_shortname" : "pad/2",
							"parameter_type" : 2,
							"parameter_mmax" : 1.0,
							"parameter_enum" : [ "val1", "val2" ]
						}

					}
,
					"varname" : "pad/2"
				}

			}
, 			{
				"box" : 				{
					"id" : "obj-47",
					"maxclass" : "live.text",
					"mode" : 0,
					"numinlets" : 1,
					"numoutlets" : 2,
					"outlettype" : [ "", "" ],
					"parameter_enable" : 1,
					"patching_rect" : [ 587.000061, 198.690948, 40.0, 20.0 ],
					"presentation" : 1,
					"presentation_rect" : [ 545.000061, 180.690948, 40.0, 20.0 ],
					"saved_attribute_attributes" : 					{
						"valueof" : 						{
							"parameter_longname" : "pad/3",
							"parameter_shortname" : "pad/3",
							"parameter_type" : 2,
							"parameter_mmax" : 1.0,
							"parameter_enum" : [ "val1", "val2" ]
						}

					}
,
					"varname" : "pad/3"
				}

			}
, 			{
				"box" : 				{
					"id" : "obj-52",
					"maxclass" : "live.text",
					"mode" : 0,
					"numinlets" : 1,
					"numoutlets" : 2,
					"outlettype" : [ "", "" ],
					"parameter_enable" : 1,
					"patching_rect" : [ 636.166687, 198.690948, 40.0, 20.0 ],
					"presentation" : 1,
					"presentation_rect" : [ 594.166687, 180.690948, 40.0, 20.0 ],
					"saved_attribute_attributes" : 					{
						"valueof" : 						{
							"parameter_longname" : "pad/4",
							"parameter_shortname" : "pad/4",
							"parameter_type" : 2,
							"parameter_mmax" : 1.0,
							"parameter_enum" : [ "val1", "val2" ]
						}

					}
,
					"varname" : "pad/4"
				}

			}
, 			{
				"box" : 				{
					"id" : "obj-62",
					"maxclass" : "live.dial",
					"numinlets" : 1,
					"numoutlets" : 2,
					"outlettype" : [ "", "float" ],
					"parameter_enable" : 1,
					"patching_rect" : [ 487.166687, 144.500031, 44.0, 47.0 ],
					"presentation" : 1,
					"presentation_rect" : [ 445.166687, 126.500031, 44.0, 47.0 ],
					"saved_attribute_attributes" : 					{
						"valueof" : 						{
							"parameter_longname" : "padcc/1",
							"parameter_shortname" : "padcc/1",
							"parameter_type" : 0,
							"parameter_unitstyle" : 0
						}

					}
,
					"varname" : "padcc/1"
				}

			}
, 			{
				"box" : 				{
					"id" : "obj-64",
					"maxclass" : "live.dial",
					"numinlets" : 1,
					"numoutlets" : 2,
					"outlettype" : [ "", "float" ],
					"parameter_enable" : 1,
					"patching_rect" : [ 536.833374, 144.500031, 44.0, 47.0 ],
					"presentation" : 1,
					"presentation_rect" : [ 494.833374, 126.500031, 44.0, 47.0 ],
					"saved_attribute_attributes" : 					{
						"valueof" : 						{
							"parameter_longname" : "padcc/2",
							"parameter_shortname" : "padcc/2",
							"parameter_type" : 0,
							"parameter_unitstyle" : 0
						}

					}
,
					"varname" : "padcc/2"
				}

			}
, 			{
				"box" : 				{
					"id" : "obj-66",
					"maxclass" : "live.dial",
					"numinlets" : 1,
					"numoutlets" : 2,
					"outlettype" : [ "", "float" ],
					"parameter_enable" : 1,
					"patching_rect" : [ 586.5, 144.500031, 44.0, 47.0 ],
					"presentation" : 1,
					"presentation_rect" : [ 544.5, 126.500031, 44.0, 47.0 ],
					"saved_attribute_attributes" : 					{
						"valueof" : 						{
							"parameter_longname" : "padcc/3",
							"parameter_shortname" : "padcc/3",
							"parameter_type" : 0,
							"parameter_unitstyle" : 0
						}

					}
,
					"varname" : "padcc/3"
				}

			}
, 			{
				"box" : 				{
					"id" : "obj-71",
					"maxclass" : "live.dial",
					"numinlets" : 1,
					"numoutlets" : 2,
					"outlettype" : [ "", "float" ],
					"parameter_enable" : 1,
					"patching_rect" : [ 636.166687, 144.500031, 44.0, 47.0 ],
					"presentation" : 1,
					"presentation_rect" : [ 594.166687, 126.500031, 44.0, 47.0 ],
					"saved_attribute_attributes" : 					{
						"valueof" : 						{
							"parameter_longname" : "padcc/4",
							"parameter_shortname" : "padcc/4",
							"parameter_type" : 0,
							"parameter_unitstyle" : 0
						}

					}
,
					"varname" : "padcc/4"
				}

			}
, 			{
				"box" : 				{
					"id" : "obj-73",
					"maxclass" : "live.dial",
					"numinlets" : 1,
					"numoutlets" : 2,
					"outlettype" : [ "", "float" ],
					"parameter_enable" : 1,
					"patching_rect" : [ 487.166687, 235.690948, 44.0, 47.0 ],
					"presentation" : 1,
					"presentation_rect" : [ 445.166687, 217.690948, 44.0, 47.0 ],
					"saved_attribute_attributes" : 					{
						"valueof" : 						{
							"parameter_longname" : "accel/1",
							"parameter_shortname" : "accel/1",
							"parameter_type" : 0,
							"parameter_unitstyle" : 0
						}

					}
,
					"varname" : "accel/1"
				}

			}
, 			{
				"box" : 				{
					"id" : "obj-75",
					"maxclass" : "live.dial",
					"numinlets" : 1,
					"numoutlets" : 2,
					"outlettype" : [ "", "float" ],
					"parameter_enable" : 1,
					"patching_rect" : [ 536.833374, 235.690948, 44.0, 47.0 ],
					"presentation" : 1,
					"presentation_rect" : [ 494.833374, 217.690948, 44.0, 47.0 ],
					"saved_attribute_attributes" : 					{
						"valueof" : 						{
							"parameter_longname" : "accel/2",
							"parameter_shortname" : "accel/2",
							"parameter_type" : 0,
							"parameter_unitstyle" : 0
						}

					}
,
					"varname" : "accel/2"
				}

			}
, 			{
				"box" : 				{
					"id" : "obj-77",
					"maxclass" : "live.dial",
					"numinlets" : 1,
					"numoutlets" : 2,
					"outlettype" : [ "", "float" ],
					"parameter_enable" : 1,
					"patching_rect" : [ 587.000061, 235.690948, 44.0, 47.0 ],
					"presentation" : 1,
					"presentation_rect" : [ 545.000061, 217.690948, 44.0, 47.0 ],
					"saved_attribute_attributes" : 					{
						"valueof" : 						{
							"parameter_longname" : "accel/3",
							"parameter_shortname" : "accel/3",
							"parameter_type" : 0,
							"parameter_unitstyle" : 0
						}

					}
,
					"varname" : "accel/3"
				}

			}
 ],
		"lines" : [ 			{
				"patchline" : 				{
					"destination" : [ "obj-114", 0 ],
					"disabled" : 0,
					"hidden" : 0,
					"source" : [ "obj-1", 1 ]
				}

			}
, 			{
				"patchline" : 				{
					"destination" : [ "obj-114", 1 ],
					"disabled" : 0,
					"hidden" : 0,
					"source" : [ "obj-109", 1 ]
				}

			}
, 			{
				"patchline" : 				{
					"destination" : [ "obj-109", 0 ],
					"disabled" : 0,
					"hidden" : 0,
					"source" : [ "obj-110", 0 ]
				}

			}
, 			{
				"patchline" : 				{
					"destination" : [ "obj-7", 0 ],
					"disabled" : 0,
					"hidden" : 0,
					"source" : [ "obj-13", 0 ]
				}

			}
, 			{
				"patchline" : 				{
					"destination" : [ "obj-35", 0 ],
					"disabled" : 0,
					"hidden" : 0,
					"source" : [ "obj-138", 0 ]
				}

			}
, 			{
				"patchline" : 				{
					"destination" : [ "obj-110", 0 ],
					"disabled" : 0,
					"hidden" : 0,
					"source" : [ "obj-17", 0 ]
				}

			}
, 			{
				"patchline" : 				{
					"destination" : [ "obj-21", 1 ],
					"disabled" : 0,
					"hidden" : 0,
					"source" : [ "obj-17", 0 ]
				}

			}
, 			{
				"patchline" : 				{
					"destination" : [ "obj-29", 0 ],
					"disabled" : 0,
					"hidden" : 0,
					"source" : [ "obj-2", 0 ]
				}

			}
, 			{
				"patchline" : 				{
					"destination" : [ "obj-1", 0 ],
					"disabled" : 0,
					"hidden" : 0,
					"source" : [ "obj-21", 0 ]
				}

			}
, 			{
				"patchline" : 				{
					"destination" : [ "obj-5", 1 ],
					"disabled" : 0,
					"hidden" : 0,
					"midpoints" : [ 101.166626, 380.500031, 203.916718, 380.500031 ],
					"source" : [ "obj-29", 0 ]
				}

			}
, 			{
				"patchline" : 				{
					"destination" : [ "obj-57", 0 ],
					"disabled" : 0,
					"hidden" : 0,
					"source" : [ "obj-29", 0 ]
				}

			}
, 			{
				"patchline" : 				{
					"destination" : [ "obj-225", 0 ],
					"disabled" : 0,
					"hidden" : 0,
					"source" : [ "obj-35", 0 ]
				}

			}
, 			{
				"patchline" : 				{
					"destination" : [ "obj-114", 1 ],
					"disabled" : 0,
					"hidden" : 0,
					"source" : [ "obj-5", 0 ]
				}

			}
, 			{
				"patchline" : 				{
					"destination" : [ "obj-65", 0 ],
					"disabled" : 0,
					"hidden" : 0,
					"source" : [ "obj-58", 0 ]
				}

			}
, 			{
				"patchline" : 				{
					"destination" : [ "obj-5", 0 ],
					"disabled" : 0,
					"hidden" : 0,
					"midpoints" : [ 331.750061, 556.25, 185.916718, 556.25 ],
					"source" : [ "obj-6", 0 ]
				}

			}
, 			{
				"patchline" : 				{
					"destination" : [ "obj-57", 0 ],
					"disabled" : 0,
					"hidden" : 0,
					"source" : [ "obj-61", 0 ]
				}

			}
, 			{
				"patchline" : 				{
					"destination" : [ "obj-138", 0 ],
					"disabled" : 0,
					"hidden" : 0,
					"source" : [ "obj-63", 0 ]
				}

			}
, 			{
				"patchline" : 				{
					"destination" : [ "obj-60", 0 ],
					"disabled" : 0,
					"hidden" : 0,
					"source" : [ "obj-65", 1 ]
				}

			}
, 			{
				"patchline" : 				{
					"destination" : [ "obj-29", 0 ],
					"disabled" : 0,
					"hidden" : 0,
					"source" : [ "obj-7", 3 ]
				}

			}
, 			{
				"patchline" : 				{
					"destination" : [ "obj-14", 0 ],
					"disabled" : 0,
					"hidden" : 0,
					"source" : [ "obj-81", 0 ]
				}

			}
 ],
		"parameters" : 		{
			"obj-16" : [ "sidebtn/1", "sidebtn/1", 0 ],
			"obj-228" : [ "Slider 3", "slider3", 0 ],
			"obj-227" : [ "Slider 2", "slider2", 0 ],
			"obj-38" : [ "arrow/1", "arrow/1", 0 ],
			"obj-30" : [ "button/4", "button/4", 0 ],
			"obj-62" : [ "padcc/1", "padcc/1", 0 ],
			"obj-18" : [ "sidebtn/2", "sidebtn/2", 0 ],
			"obj-73" : [ "accel/1", "accel/1", 0 ],
			"obj-40" : [ "arrow/2", "arrow/2", 0 ],
			"obj-43" : [ "pad/1", "pad/1", 0 ],
			"obj-64" : [ "padcc/2", "padcc/2", 0 ],
			"obj-20" : [ "sidebtn/3", "sidebtn/3", 0 ],
			"obj-75" : [ "accel/2", "accel/2", 0 ],
			"obj-24" : [ "button/1", "button/1", 0 ],
			"obj-12" : [ "Slider Touch 3", "slidertouch3", 0 ],
			"obj-45" : [ "pad/2", "pad/2", 0 ],
			"obj-11" : [ "Slider Touch 2", "slidertouch2", 0 ],
			"obj-66" : [ "padcc/3", "padcc/3", 0 ],
			"obj-10" : [ "Slider Touch 1", "slidertouch1", 0 ],
			"obj-22" : [ "sidebtn/4", "sidebtn/4", 0 ],
			"obj-54" : [ "pad/4[1]", "pad/4", 0 ],
			"obj-77" : [ "accel/3", "accel/3", 0 ],
			"obj-222" : [ "Slider 1", "slider1", 0 ],
			"obj-26" : [ "button/2", "button/2", 0 ],
			"obj-47" : [ "pad/3", "pad/3", 0 ],
			"obj-71" : [ "padcc/4", "padcc/4", 0 ],
			"obj-28" : [ "button/3", "button/3", 0 ],
			"obj-52" : [ "pad/4", "pad/4", 0 ]
		}
,
		"dependency_cache" : [  ]
	}

}
